<svg width="111" height="61" viewBox="0 0 111 61" fill="none" xmlns="http://www.w3.org/2000/svg">
<path d="M0.634239 1.76944C-0.0453824 3.07601 0.462864 4.68614 1.76944 5.36576C3.07601 6.04538 4.68614 5.53714 5.36576 4.23056C6.04538 2.92399 5.53714 1.31386 4.23056 0.634239C2.92399 -0.0453824 1.31386 0.462864 0.634239 1.76944ZM105.848 56.4968C105.168 57.8034 105.677 59.4135 106.983 60.0932C108.29 60.7728 109.9 60.2645 110.579 58.958C111.259 57.6514 110.751 56.0413 109.444 55.3616C108.138 54.682 106.528 55.1903 105.848 56.4968ZM2.76927 3.44358L107.983 58.171L108.444 57.2838L3.23073 2.55642L2.76927 3.44358Z" fill="white"/>
</svg>
