<svg xmlns="http://www.w3.org/2000/svg" viewBox="0 0 750 500"><g id="freepik--background-simple--inject-62"><path d="M692.6,54.8c-12.35,1.85-27.43,7-34.13,8.25q-52.9,9.83-106,17.37C494.91,88.56,437.09,95,379.34,96.23,293.39,98.13,209.07,78.38,124.18,68c-20.19-2.46-80.87-17.47-91,15.87C20,127.12,20.54,179.06,19.07,224.26c-1.56,48.21-3.07,96.37-3.52,144.52-.16,16.49,1.09,33.43,7.19,47.85,7.64,18.05,21.83,25.8,37.68,28.33,28.68,4.56,57.85,3.12,86.81,2,39.16-1.54,78.31-5.18,117.41-9.05,67.69-6.7,136.52-18,204.28-15.55,47.57,1.74,94.36,11.15,141,20.58,18.9,3.82,37.45,9.73,56.6,11.94,15.52,1.78,39.22,3.51,52-11.06C729.23,431.57,729.66,403,731,387c2.93-34.44,3.3-69.14,3.1-103.61-.38-64.59-1.14-131.78-10.83-195.09C720,66.8,712,51.9,692.6,54.8Z" style="fill:#ECEFF1"></path><path d="M692.6,54.8c-12.35,1.85-27.43,7-34.13,8.25q-52.9,9.83-106,17.37C494.91,88.56,437.09,95,379.34,96.23,293.39,98.13,209.07,78.38,124.18,68c-20.19-2.46-80.87-17.47-91,15.87C20,127.12,20.54,179.06,19.07,224.26c-1.56,48.21-3.07,96.37-3.52,144.52-.16,16.49,1.09,33.43,7.19,47.85,7.64,18.05,21.83,25.8,37.68,28.33,28.68,4.56,57.85,3.12,86.81,2,39.16-1.54,78.31-5.18,117.41-9.05,67.69-6.7,136.52-18,204.28-15.55,47.57,1.74,94.36,11.15,141,20.58,18.9,3.82,37.45,9.73,56.6,11.94,15.52,1.78,39.22,3.51,52-11.06C729.23,431.57,729.66,403,731,387c2.93-34.44,3.3-69.14,3.1-103.61-.38-64.59-1.14-131.78-10.83-195.09C720,66.8,712,51.9,692.6,54.8Z" style="fill:#fff;opacity:0.7000000000000001"></path></g><g id="freepik--speech-bubble--inject-62"><path d="M172.75,66.13H128.61a7.53,7.53,0,0,0-7.53,7.53v61.26a7.53,7.53,0,0,0,7.53,7.53h30.93l-10.09,36.2,20.75-36.2h2.55a7.53,7.53,0,0,0,7.52-7.53V73.66A7.53,7.53,0,0,0,172.75,66.13Z" style="fill:#fff;stroke:#263238;stroke-miterlimit:10"></path><path d="M158.59,120.39a4.78,4.78,0,0,0,1.07-3.19l.24-1.46c.71-4.11,2.59-10.46,5.17-13.75a18.27,18.27,0,1,0-28.41.45c2.81,3.37,4.44,10.12,5,14.46l0,.3a4.76,4.76,0,0,0,1.12,3.25" style="fill:#ECEFF1;stroke:#263238;stroke-linecap:round;stroke-linejoin:round"></path><rect x="141.7" y="120.39" width="18.61" height="4.65" rx="1.4" style="fill:#263238;stroke:#263238;stroke-linecap:round;stroke-linejoin:round"></rect><rect x="141.7" y="126.36" width="18.61" height="4.65" rx="1.4" style="fill:#263238;stroke:#263238;stroke-linecap:round;stroke-linejoin:round"></rect><path d="M143.37,132.43c.91,2.75,4,4.77,7.63,4.77s6.72-2,7.63-4.77Z" style="fill:none;stroke:#263238;stroke-linecap:round;stroke-linejoin:round"></path></g><g id="freepik--Charts--inject-62"><rect x="564.9" y="45.1" width="82.95" height="58.76" rx="2.77" style="fill:#fff;stroke:#263238;stroke-linecap:round;stroke-linejoin:round"></rect><path d="M591.77,98.17a23.46,23.46,0,0,1-4.54-46.48l1.12,5.69a17.67,17.67,0,1,0,9.09,34.07l1.86,5.48A23.4,23.4,0,0,1,591.77,98.17Z" style="fill:#263238"></path><path d="M608.39,68.7a17.71,17.71,0,0,0-20-11.32l-1.12-5.69a23.76,23.76,0,0,1,4.54-.43,23.51,23.51,0,0,1,22.06,15.47Z" style="fill:#ECEFF1"></path><path d="M599.3,96.93l-1.86-5.48A17.72,17.72,0,0,0,608.39,68.7l5.44-2a23.46,23.46,0,0,1-14.53,30.2Z" style="fill:#a8a8a8"></path><rect x="623.09" y="56.63" width="6.51" height="6.51" style="fill:#263238"></rect><rect x="623.09" y="72.57" width="6.51" height="6.51" style="fill:#ECEFF1"></rect><rect x="623.09" y="88.5" width="6.51" height="6.51" style="fill:#a8a8a8"></rect><line x1="633.03" y1="60.06" x2="644" y2="60.06" style="fill:none;stroke:#263238;stroke-linecap:round;stroke-linejoin:round"></line><line x1="633.03" y1="75.48" x2="644" y2="75.48" style="fill:none;stroke:#263238;stroke-linecap:round;stroke-linejoin:round"></line><line x1="585.74" y1="75.14" x2="596.71" y2="75.14" style="fill:none;stroke:#263238;stroke-linecap:round;stroke-linejoin:round"></line><line x1="633.03" y1="91.59" x2="644" y2="91.59" style="fill:none;stroke:#263238;stroke-linecap:round;stroke-linejoin:round"></line><rect x="564.9" y="111.42" width="82.88" height="64.24" rx="4.11" style="fill:#fff;stroke:#263238;stroke-linecap:round;stroke-linejoin:round"></rect><rect x="574.41" y="134.18" width="10.27" height="33.8" style="fill:#ECEFF1"></rect><rect x="587.63" y="142.62" width="10.27" height="25.35" style="fill:#828282"></rect><rect x="600.84" y="130.08" width="10.27" height="37.89" style="fill:#ECEFF1"></rect><rect x="614.06" y="128.03" width="10.27" height="39.94" style="fill:#828282"></rect><rect x="627.28" y="134.18" width="10.27" height="33.8" style="fill:#ECEFF1"></rect><line x1="575.64" y1="119.08" x2="630.15" y2="119.08" style="fill:none;stroke:#263238;stroke-linecap:round;stroke-linejoin:round"></line><line x1="575.64" y1="124.44" x2="598.35" y2="124.44" style="fill:none;stroke:#263238;stroke-linecap:round;stroke-linejoin:round"></line></g><g id="freepik--Gears--inject-62"><path d="M375.3,219.19l9.25,1.28,2.23-9.76L378.19,208s0,0,0-.08a23.56,23.56,0,0,0-1.86-9.18l6.47-6.15-6.24-7.82-7.2,4.78a23.33,23.33,0,0,0-8.73-4.41l-.75-8.59h-10l-.74,8.47a23.41,23.41,0,0,0-8.86,4.24l-7.23-4.8-6.23,7.82,6.32,6a23.44,23.44,0,0,0-2,9.3l-8.59,2.77,2.23,9.75,9.06-1.25a23.44,23.44,0,0,0,5.73,7.09l-3.33,8.81,9,4.34L350,231a23.87,23.87,0,0,0,8.91.06l4.88,8.21,9-4.34-3.31-8.76A23.81,23.81,0,0,0,375.3,219.19Zm-33.41-11.32a12.76,12.76,0,1,1,12.75,12.75A12.75,12.75,0,0,1,341.89,207.87Z" style="fill:#263238"></path><path d="M413.93,183.32l7.18,1,1.73-7.56-6.66-2.15v-.06a18.11,18.11,0,0,0-1.44-7.12l5-4.78-4.84-6.07-5.59,3.71a18.25,18.25,0,0,0-6.78-3.42l-.58-6.67H394.2l-.57,6.57a18.28,18.28,0,0,0-6.88,3.29l-5.61-3.72-4.84,6.07,4.91,4.67a18.36,18.36,0,0,0-1.59,7.23L373,176.45l1.72,7.56,7-1a18.29,18.29,0,0,0,4.44,5.51l-2.58,6.83,7,3.37,3.73-6.29a18.44,18.44,0,0,0,3.59.36,18.22,18.22,0,0,0,3.32-.31l3.79,6.38,7-3.37-2.57-6.81A18.27,18.27,0,0,0,413.93,183.32ZM388,174.54a9.9,9.9,0,1,1,9.9,9.9A9.9,9.9,0,0,1,388,174.54Z" style="fill:#263238"></path></g><g id="freepik--Text--inject-62"><path d="M328.29,293l7.8-36.73H341L348.87,293H344l-1.68-9.25h-7.48L333.09,293Zm7.25-12.93h6.12l-3.08-16.55Z" style="fill:#263238"></path><path d="M361.16,293.45a9.32,9.32,0,0,1-5.51-1.47,8.3,8.3,0,0,1-3-4.29,21.64,21.64,0,0,1-.93-6.76V268.65a24.55,24.55,0,0,1,.84-6.88,7.81,7.81,0,0,1,3-4.33,10.49,10.49,0,0,1,6-1.49,11.58,11.58,0,0,1,5.56,1.15,6.77,6.77,0,0,1,3.06,3.54,16.43,16.43,0,0,1,.95,6V268h-4.81v-1.13A19.22,19.22,0,0,0,366,263a3.66,3.66,0,0,0-1.29-2.26,5,5,0,0,0-3.06-.75,4.48,4.48,0,0,0-3.29,1,4.93,4.93,0,0,0-1.27,2.84,30.52,30.52,0,0,0-.25,4.05v13.61a20.91,20.91,0,0,0,.39,4.4,4.47,4.47,0,0,0,1.47,2.63,4.92,4.92,0,0,0,3.09.86,4.54,4.54,0,0,0,3.08-.95,5.11,5.11,0,0,0,1.5-2.82,22.07,22.07,0,0,0,.41-4.62v-2.54h-4.68v-3.63h9.3V293h-3.22l-.5-4.22a7.61,7.61,0,0,1-2.27,3.35A6.31,6.31,0,0,1,361.16,293.45Z" style="fill:#263238"></path><path d="M376.94,293V256.27h5V293Z" style="fill:#263238"></path><path d="M387.92,293V256.27H393v33.05h9.39V293Z" style="fill:#263238"></path><path d="M405.92,293V256.27h14.24v3.8H411v12.16h7.39v3.63H411v13.46h9.21V293Z" style="fill:#263238"></path></g><g id="freepik--Arrows--inject-62"><path d="M551.77,236.88A175.88,175.88,0,0,1,379.2,413.68q-1.63,0-3.3,0H179.32l16-24.08-16-26.92H375.9c.79,0,1.57,0,2.35,0A124.86,124.86,0,0,0,378.09,113L380.65,124l-50.84-27.9L363,48.52l3.21,13.73c3.23-.17,6.46-.27,9.68-.27a175.73,175.73,0,0,1,175.87,174.9Z" style="fill:#ECEFF1;stroke:#263238;stroke-linecap:round;stroke-linejoin:round"></path><path d="M624.35,387.1,581.2,348.36V361.6H515.62c-2.26,2.55-4.59,5.07-7,7.52A197.64,197.64,0,0,1,446,412.37l-.21.23H581.2v13.23Z" style="fill:#263238;stroke:#263238;stroke-linecap:round;stroke-linejoin:round"></path><path d="M250.91,237.71c0-58.28,40.24-107.32,94.4-120.85L317.07,99.73l25.62-33.48c-80.64,15.38-141.78,86.41-141.78,171.46a173.78,173.78,0,0,0,40.37,111.52H320A124.68,124.68,0,0,1,250.91,237.71Z" style="fill:#263238;stroke:#263238;stroke-linecap:round;stroke-linejoin:round"></path></g><g id="freepik--character-2--inject-62"><path d="M670.36,114.58s-3.38,12.56-2.65,13.77,2.41.72,1.45,3.14-3.14,7-2.66,8.93,3.14,3.38,3.14,3.38,1.21,8.7,2.41,10.39,7.73.73,7.73.73l.49,6.52,19.32-1.21-.72-11.59-1-35.75Z" style="fill:#fff;stroke:#263238;stroke-linecap:round;stroke-linejoin:round"></path><path d="M706.11,110.47c-3.14-4.83-9.42-6-12.56-5.55-.55.08-2.86.09-5.88.19-2.3-.86-5.14-1.77-5.14-1.77l-1.09-2.18c-1.08-2.17-8.16,2.72-8.16,2.72l.28-1.9c.27-1.9-5.17,2.18-7.08,4.35s-1.36,3.81-.27,6.8a8.44,8.44,0,0,0,.82,1.7,2.61,2.61,0,0,0,1.2,1.32,2.23,2.23,0,0,0,.68.36,10.86,10.86,0,0,0,3.63,1.21s-.73,3.38-1,5.79,4.11,5.08,4.11,5.08-.24,3.62.24,4.83,1.69,1.45,2.41.48,1.21-5.55,1.94-3.62,3.62,16.42,5.55,18.11,10.63.73,13,.25,7-10.63,9.18-16.67S709.25,115.3,706.11,110.47Z" style="fill:#263238;stroke:#263238;stroke-linecap:round;stroke-linejoin:round"></path><path d="M675.68,128.59l-1,13.65-5,1.56s.92,6.06.38,9-.55,4.9,2.45,5.17,7.29-1.59,7.31-3.1-1.59-12.68-1.59-12.68l2.08-12Z" style="fill:#263238;stroke:#263238;stroke-linecap:round;stroke-linejoin:round"></path><path d="M678.19,130.16a61.29,61.29,0,0,1,.59,6.78c0,2.65-1.77,4.13-.59,5.3s2.06.59,2.95-1.47a17.55,17.55,0,0,0,1.18-7.67C682,131,681.73,126.62,678.19,130.16Z" style="fill:#fff;stroke:#263238;stroke-linecap:round;stroke-linejoin:round"></path><path d="M675.68,160.71l-5.32,9.66s13.29-3.86,20.54-3.86A99.24,99.24,0,0,1,706.11,168l-3.38-9.42S684.37,156.61,675.68,160.71Z" style="fill:#ECEFF1;stroke:#263238;stroke-linecap:round;stroke-linejoin:round"></path><path d="M725.68,288.09s0,8.46-.73,12.08-5.55,9.18-7.48,10.14-4.35,1.21-4.84,0-1.2-.72-.48-7S715.53,285,715.53,285Z" style="fill:#fff;stroke:#263238;stroke-linecap:round;stroke-linejoin:round"></path><path d="M716.51,291.13s-.55,4,.18,5.84a27.49,27.49,0,0,0,2,3.84,9.13,9.13,0,0,1-2.92,4.56L713.59,307" style="fill:none;stroke:#263238;stroke-linecap:round;stroke-linejoin:round"></path><path d="M714.68,299.53a17.4,17.4,0,0,0,4,1.28" style="fill:none;stroke:#263238;stroke-linecap:round;stroke-linejoin:round"></path><path d="M727.37,280.36l-1.69,7.73a18.76,18.76,0,0,1-6.28.24,4.8,4.8,0,0,1-3.87-3.38l.73-6.76Z" style="fill:#ECEFF1;stroke:#263238;stroke-linecap:round;stroke-linejoin:round"></path><path d="M726.18,176.41s3.38,20.53,5.56,35.75,2.63,29.71,2.15,37-3.38,30.52-4.35,32.21-7.49,2.41-10.14,1.21-3.87-2.66-3.87-7.25S718,227.86,718,227.86Z" style="fill:#ECEFF1;stroke:#263238;stroke-linecap:round;stroke-linejoin:round"></path><path d="M726.6,434.11s2.23-2.75,1.65-5.26c-.37-1.62-1.47-5.42-2.1-9L722,263.61l-64.64-3.3-1.75,173.05s-7.33,5.62-11.24,6.74c-1.83.52-5.92,1.28-7.74,1.95a2.16,2.16,0,0,0,.68,4.19h33.84c3.36,0,5-2,5-5.35,0,0-1.26-5.73-1.26-5.77,0-3.91,16.23-128.36,16.23-128.36l18.95,114c0,2,.05,10.5.39,11.19s1.15,2.19,1.54,2.92l.52,12.28h18.78Z" style="fill:#263238;stroke:#263238;stroke-linecap:round;stroke-linejoin:round"></path><line x1="682.63" y1="306.74" x2="712.15" y2="303.31" style="fill:none;stroke:#878787;stroke-linecap:round;stroke-linejoin:round"></line><path d="M672.3,169.17s-10.81,4.59-15.88,7a73.26,73.26,0,0,1-7.24,3.14s8.14,76.9,8.14,81-.24,4.35,1.21,5.56,8.94,1.76,22.23,1.52,35.16-.88,36.37-.88a6.23,6.23,0,0,0,4.83-2.9c1.45-2.17,4-86.23,4.22-87.2s-19.1-8-20.79-8.45S694.53,163.58,672.3,169.17Z" style="fill:#ECEFF1;stroke:#263238;stroke-linecap:round;stroke-linejoin:round"></path><path d="M710.24,218.41c-6.91,10-17.82,24.4-26.31,29.88" style="fill:none;stroke:#263238;stroke-linecap:round;stroke-linejoin:round"></path><path d="M717,208.29s-1.25,2-3.35,5.16" style="fill:none;stroke:#263238;stroke-linecap:round;stroke-linejoin:round"></path><path d="M683.07,253.56c-1.18.77-2.35,1.49-3.49,2.13" style="fill:none;stroke:#263238;stroke-linecap:round;stroke-linejoin:round"></path><path d="M697,242.64a142.41,142.41,0,0,1-11.24,9.08" style="fill:none;stroke:#263238;stroke-linecap:round;stroke-linejoin:round"></path><path d="M618.64,197.89s.93-1.63,2.33-4.42,1.16-6.28,1.16-8.14,2.09-2.56,2.09-4.65-3-1.86-4.65-.47-2.09,5.58-2.09,5.58-2.58-4.36-4-7.44c-1.23-2.77-2.94-7.53-5.27-8.23s-2.2,2.17-2,2.87a26.69,26.69,0,0,0,1.44,3.95c.53,1.08,1.62,4.2,1.62,4.2s-3.26-2.56-4.42-2.56a1.71,1.71,0,0,0-1.4,2.56s-2.79,1.17-2.09,3,.93,2.55.93,2.55-.7.93,0,3.26,3.72,6.28,4.89,8.14a9.87,9.87,0,0,0,2.55,2.79Z" style="fill:#fff;stroke:#263238;stroke-linecap:round;stroke-linejoin:round"></path><path d="M603.52,181.14a19.39,19.39,0,0,0,2.58,3.17" style="fill:none;stroke:#263238;stroke-linecap:round;stroke-linejoin:round"></path><path d="M602.36,186.72a10.84,10.84,0,0,0,1.58,2.08" style="fill:none;stroke:#263238;stroke-linecap:round;stroke-linejoin:round"></path><path d="M611.43,210l-4.11-8.94a10.38,10.38,0,0,1,7-4.35c5.08-1,5.8,0,5.8,0l2.66,9.18S614.08,206.61,611.43,210Z" style="fill:#ECEFF1;stroke:#263238;stroke-linecap:round;stroke-linejoin:round"></path><path d="M636.06,226.41s-7.48-12.8-9.42-17.39-4.59-5.79-8.93-5.31-8.22,5.07-8.22,8.45,15.28,35.16,16,37.1,6.23,4,9.85,1.79S639.45,237,636.06,226.41Z" style="fill:#ECEFF1;stroke:#263238;stroke-linecap:round;stroke-linejoin:round"></path><path d="M649.18,179.31s-10,29.37-11.65,34-9.44,25.46-11.61,29.57-.24,11.11,6.28,12.08,7.49-1,10.87-5.8,11.73-16.91,11.73-16.91S651.11,184.87,649.18,179.31Z" style="fill:#ECEFF1;stroke:#263238;stroke-linecap:round;stroke-linejoin:round"></path><line x1="654.8" y1="232.21" x2="646.07" y2="212.85" style="fill:none;stroke:#263238;stroke-linecap:round;stroke-linejoin:round"></line><line x1="642.7" y1="222.15" x2="650.02" y2="227.89" style="fill:none;stroke:#263238;stroke-linecap:round;stroke-linejoin:round"></line></g><g id="freepik--character-1--inject-62"><path d="M100.94,110.39s5.49,6.12,4.86,8.87a70.81,70.81,0,0,1-3.17,8.45l-13.31-16,7.6-4.65Z" style="fill:#263238;stroke:#263238;stroke-miterlimit:10"></path><path d="M110.06,174.84s2,0,3.41,5.4,12.52,35.55,13.37,40.67,2.56,9.38-1.14,11.94-10.81,4.15-14.23-.11-.84-6.14-3.11-18.94-4.27-25.88-4.27-33.27S109.21,174.56,110.06,174.84Z" style="fill:#ECEFF1;stroke:#263238;stroke-miterlimit:10"></path><path d="M133.21,214.4a149.82,149.82,0,0,0-10,11.79c-3.11,4.45-19,16.16-12.86,18.16s12.68-5,14.38-7.93S140.34,223,140.34,223Z" style="fill:#fff;stroke:#263238;stroke-miterlimit:10"></path><path d="M128.24,219.64l3.14,11.79s-12.57,14.14-15.45,14.92-4.19-6-5-7.85-.45-8.68-.45-8.68Z" style="fill:#ECEFF1;stroke:#263238;stroke-miterlimit:10"></path><path d="M70.25,336.36l.85,9.1s-2.84,18.77-2.56,28.73,4.55,25.87,5.12,30.42,3.7,17.92,3.41,19.91a29.76,29.76,0,0,0-.28,3.7s-3.13,2.27-3.13,5.12.86,13.08.86,13.08h4l.56-6.54L81.91,447h21.33s2.27.56,1.13-1.71-8-6-8-6l-8.49-16.16s7.2-46.47,7.2-55.28a66.07,66.07,0,0,1,2.94-17.55,23.77,23.77,0,0,0,1.15-4.76l1.06-8.06Z" style="fill:#fff;stroke:#263238;stroke-miterlimit:10"></path><path d="M104.37,445.28c-1.13-2.28-8-6-8-6s-5.4.85-8.53-.57c-2.41-1.1-8.85-7.24-11.7-10-.91.83-2.52,2.57-2.52,4.62,0,2.84.86,13.08.86,13.08h4l.56-6.54L81.91,447h21.33S105.51,447.55,104.37,445.28Z" style="fill:#ECEFF1;stroke:#263238;stroke-miterlimit:10"></path><path d="M56.32,336.36l.85,9.1s-2.85,18.77-2.56,28.73,4.55,25.87,5.12,30.42,3.69,17.92,3.41,19.91a29.76,29.76,0,0,0-.28,3.7s-3.13,2.27-3.13,5.12.85,13.08.85,13.08h4l.57-6.54L68,447H89.3s2.28.56,1.14-1.71-8-6-8-6l-6.54-15.64s4-48.79,4-57.6a46.24,46.24,0,0,1,2.54-14,21.68,21.68,0,0,0,1.13-7.87l-.29-6.71Z" style="fill:#fff;stroke:#263238;stroke-miterlimit:10"></path><path d="M90.44,445.28c-1.14-2.28-8-6-8-6s-5.41.85-8.53-.57c-2.41-1.1-8.86-7.24-11.7-10-.91.83-2.52,2.57-2.52,4.62,0,2.84.85,13.08.85,13.08h4l.57-6.54L68,447H89.3S91.58,447.55,90.44,445.28Z" style="fill:#ECEFF1;stroke:#263238;stroke-miterlimit:10"></path><path d="M41,254.75s-4,21.61-2.28,34.69,11.38,48.35,11.38,48.35a117.12,117.12,0,0,0,31.28,2.56,271.3,271.3,0,0,0,29.57-2.85s9.1-41.23,8.82-59.72-2.84-23-2.84-23l-73.66-6Z" style="fill:#263238;stroke:#263238;stroke-miterlimit:10"></path><path d="M111.48,184.23l-.57,11.37A141.33,141.33,0,0,1,113.76,211c.57,6-2.28,20.47-2.28,20.47l8,30.15s-3.13,2-7.11,4.83-13.94,4-13.94,4l-1.7-6.82-2,6s-11.1.85-30.15-3.13-25-8.53-25-8.53l5.68-33.27s-4-20.48-4.83-32.42,5.18-20.59,8.88-22.58,17.63-7.68,17.63-7.68,12.73,3.81,21.55,4.95,19.91,7.11,21.61,8,1.71,3.41,1.71,3.41" style="fill:#ECEFF1;stroke:#263238;stroke-miterlimit:10"></path><path d="M69,157.28s-6.54.84-7.81,2.74-.62,6.41-.62,6.41l3,20.06,13.08-1.55-3.59,4.44L90.38,197l7.39-10.13-4.22-3.38,12.88-2.33S96.08,162.35,90,158.54,69,157.28,69,157.28Z" style="fill:#ECEFF1;stroke:#263238;stroke-miterlimit:10"></path><polygon points="97.8 149.6 99.67 177.69 88.69 169.53 88.27 147.98 97.8 149.6" style="fill:#263238;stroke:#263238;stroke-miterlimit:10"></polygon><path d="M88.69,153.9v15.63c0,8.44.84,24.07,0,24.71s-16.48-27.88-18.17-30A18.72,18.72,0,0,1,68,160V144.6L88.26,148Z" style="fill:#fff;stroke:#263238;stroke-miterlimit:10"></path><path d="M97.32,113.93s4,4.61,5.53,8.6,1.84,14.76.61,18.45-4.3,12-5.53,13.83-4,2.46-7.07,1.84-11.37-6.15-11.37-6.15-1.84-30.73-1.23-32.88,14.45-6.46,14.45-6.46Z" style="fill:#fff;stroke:#263238;stroke-miterlimit:10"></path><path d="M91,131.19c0,1.11-.38,2-.84,2s-.85-.9-.85-2,.38-2,.85-2S91,130.08,91,131.19Z" style="fill:#263238"></path><path d="M102,130.56c0,1.11-.37,2-.84,2s-.85-.89-.85-2,.38-2,.85-2S102,129.45,102,130.56Z" style="fill:#263238"></path><path d="M99,127.5s-1.27,3.38-.64,4.43,5.07,3.8,3.8,5.49-2.32,2.54-4,2.54" style="fill:none;stroke:#263238;stroke-miterlimit:10"></path><path d="M99.67,143.55s-3,2.32-7.18,0" style="fill:none;stroke:#263238;stroke-miterlimit:10"></path><path d="M87,126.65s2.32-3.8,6.33-1.9" style="fill:none;stroke:#263238;stroke-miterlimit:10"></path><path d="M99.25,126s3.38-2.75,4.43.21" style="fill:none;stroke:#263238;stroke-miterlimit:10"></path><path d="M103.64,217.33l-4.44,11-6.79,3.51,2.31,7.34,11.73-5.47s4-5.62,6.55-8.66a53.54,53.54,0,0,0,4.91-7.25Z" style="fill:#fff;stroke:#263238;stroke-miterlimit:10"></path><path d="M106,222s2.34,4.21.93,6.78" style="fill:#fff;stroke:#263238;stroke-miterlimit:10"></path><polygon points="114.63 193.01 98.26 221.78 138.96 218.04 153.46 189.5 114.63 193.01" style="fill:#263238;stroke:#263238;stroke-miterlimit:10"></polygon><path d="M51.42,168.66s-7.27,2.4-11,6S34.57,183,33.7,188.53s7.81,57.39,10,60.21,56.64-10.56,56.64-10.56l-2-10.51L59.72,231l-1.54-44.49" style="fill:#ECEFF1;stroke:#263238;stroke-miterlimit:10"></path><path d="M147.61,209.62s-7-10.53-8.18-9.59-.94,1.87.23,3.5,3.74,6.32,3.74,6.32-7.72-3-9.59-3.74a3,3,0,0,0-3.74,2.1c0,.94-1.64,4.68-1.64,5.38s8.19,10.06,9.36,11,1.17,1.64,3.51-.7S147.61,209.62,147.61,209.62Z" style="fill:#fff;stroke:#263238;stroke-miterlimit:10"></path><line x1="130.07" y1="208.21" x2="141.92" y2="213.61" style="fill:none;stroke:#263238;stroke-miterlimit:10"></line><line x1="129.41" y1="211.79" x2="139.92" y2="219.41" style="fill:none;stroke:#263238;stroke-miterlimit:10"></line><path d="M95.23,112.71,84.46,121,84,181.85,48.3,166.47s4-53.51,8-60.48,25.4-6.16,32.16-5.11S102,110,101.36,111.44,95.23,112.71,95.23,112.71Z" style="fill:#263238;stroke:#263238;stroke-miterlimit:10"></path></g><g id="freepik--Floor--inject-62"><line x1="296.58" y1="446.69" x2="743.51" y2="446.69" style="fill:none;stroke:#263238;stroke-miterlimit:10"></line><line x1="17.2" y1="446.69" x2="285.4" y2="446.69" style="fill:none;stroke:#263238;stroke-miterlimit:10"></line></g></svg>
