<svg class="animated" id="freepik_stories-innovation" xmlns="http://www.w3.org/2000/svg" viewBox="0 0 500 500" version="1.1" xmlns:xlink="http://www.w3.org/1999/xlink" xmlns:svgjs="http://svgjs.com/svgjs"><style>svg#freepik_stories-innovation:not(.animated) .animable {opacity: 0;}svg#freepik_stories-innovation.animated #freepik--light-bulb--inject-112 {animation: 6s Infinite  linear heartbeat;animation-delay: 0s;}svg#freepik_stories-innovation.animated #freepik--Robot--inject-112 {animation: 1.5s Infinite  linear floating;animation-delay: 0s;}svg#freepik_stories-innovation.animated #freepik--Rocket--inject-112 {animation: 6s Infinite  linear floating;animation-delay: 0s;}            @keyframes heartbeat {                0% {                    transform: scale(1);                }                10% {                    transform: scale(1.1);                }                30% {                    transform: scale(1);                }                40% {                    transform: scale(1);                }                50% {                    transform: scale(1.1);                }                60% {                    transform: scale(1);                }                100% {                    transform: scale(1);                }            }                    @keyframes floating {                0% {                    opacity: 1;                    transform: translateY(0px);                }                50% {                    transform: translateY(-10px);                }                100% {                    opacity: 1;                    transform: translateY(0px);                }            }        </style><g id="freepik--Floor--inject-112" class="animable" style="transform-origin: 259.7px 463px;"><path d="M457.88,463c0,.14-88.74.26-198.17.26S61.52,463.11,61.52,463s88.71-.26,198.19-.26S457.88,462.82,457.88,463Z" style="fill: rgb(38, 50, 56); transform-origin: 259.7px 463px;" id="elsprsg34brdo" class="animable"></path></g><g id="freepik--Sparkles--inject-112" class="animable" style="transform-origin: 251.76px 177.02px;"><path d="M109.78,152.59l.72,1.2a8.16,8.16,0,0,0,3.39,3.12l1.26.62-1.2.73a8.19,8.19,0,0,0-3.13,3.39l-.62,1.25-.72-1.19a8.21,8.21,0,0,0-3.4-3.13l-1.25-.62,1.2-.72a8.19,8.19,0,0,0,3.12-3.4Z" style="fill: rgb(12, 22, 51); transform-origin: 109.99px 157.745px;" id="elne4sh8kfutd" class="animable"></path><path d="M369.35,284.28l.72,1.2a8.25,8.25,0,0,0,3.39,3.13l1.26.62-1.2.72a8.21,8.21,0,0,0-3.13,3.4l-.62,1.25-.72-1.2a8.32,8.32,0,0,0-3.39-3.13l-1.26-.62,1.2-.72a8.19,8.19,0,0,0,3.13-3.39Z" style="fill: rgb(12, 22, 51); transform-origin: 369.56px 289.44px;" id="elg0iwqtcmh6w" class="animable"></path><path d="M228.36,37l.72,1.2a8.19,8.19,0,0,0,3.39,3.13l1.26.62-1.2.72A8.25,8.25,0,0,0,229.4,46l-.62,1.26-.72-1.2a8.21,8.21,0,0,0-3.4-3.13l-1.25-.62,1.2-.72a8.22,8.22,0,0,0,3.12-3.39Z" style="fill: rgb(12, 22, 51); transform-origin: 228.57px 42.13px;" id="elq2j3ka2jh1h" class="animable"></path><path d="M397.14,150l.72,1.2a8.21,8.21,0,0,0,3.4,3.13l1.25.62-1.2.72a8.22,8.22,0,0,0-3.12,3.39l-.62,1.26-.72-1.2a8.21,8.21,0,0,0-3.4-3.13l-1.25-.62,1.19-.72a8.25,8.25,0,0,0,3.13-3.39Z" style="fill: rgb(12, 22, 51); transform-origin: 397.355px 155.16px;" id="el7va6bliyhta" class="animable"></path><path d="M137.12,198.8l.52.87a6,6,0,0,0,2.48,2.28l.92.45-.88.53a6,6,0,0,0-2.28,2.48l-.45.91-.53-.87a6,6,0,0,0-2.48-2.28l-.91-.45.87-.53a5.93,5.93,0,0,0,2.28-2.48Z" style="fill: rgb(12, 22, 51); transform-origin: 137.275px 202.56px;" id="ell7vqtabmr8a" class="animable"></path><path d="M161,310.86l.53.88A6,6,0,0,0,164,314l.92.45-.88.53a6,6,0,0,0-2.28,2.48l-.45.91-.53-.87a6,6,0,0,0-2.47-2.28l-.92-.46.88-.52a6,6,0,0,0,2.28-2.48Z" style="fill: rgb(12, 22, 51); transform-origin: 161.155px 314.615px;" id="elzzj7zqvzsrl" class="animable"></path><path d="M389.3,116l.52.87a5.93,5.93,0,0,0,2.48,2.28l.92.46-.88.52a6,6,0,0,0-2.28,2.48l-.45.92-.53-.88a6,6,0,0,0-2.48-2.28l-.91-.45.87-.53a5.93,5.93,0,0,0,2.28-2.48Z" style="fill: rgb(12, 22, 51); transform-origin: 389.455px 119.765px;" id="eljzm1ghw6c0b" class="animable"></path><path d="M90.3,175.16l.52.87a6,6,0,0,0,2.48,2.29l.92.45-.88.52a6.12,6.12,0,0,0-2.28,2.48l-.45.92-.53-.88a6,6,0,0,0-2.48-2.28l-.91-.45.87-.53a5.93,5.93,0,0,0,2.28-2.48Z" style="fill: rgb(12, 22, 51); transform-origin: 90.455px 178.925px;" id="eluxysuovsni" class="animable"></path><path d="M414.58,121.42l.3.5a3.43,3.43,0,0,0,1.42,1.3l.53.26-.5.3A3.39,3.39,0,0,0,415,125.2l-.26.53-.3-.5a3.39,3.39,0,0,0-1.42-1.31l-.52-.26.5-.3a3.43,3.43,0,0,0,1.3-1.42Z" style="fill: rgb(12, 22, 51); transform-origin: 414.665px 123.575px;" id="elsy9l19conp" class="animable"></path><path d="M395.89,265.38l.3.51a3.43,3.43,0,0,0,1.42,1.3l.52.26-.5.3a3.45,3.45,0,0,0-1.31,1.42l-.26.53-.3-.51a3.43,3.43,0,0,0-1.42-1.3l-.52-.26.5-.3a3.45,3.45,0,0,0,1.31-1.42Z" style="fill: rgb(12, 22, 51); transform-origin: 395.975px 267.54px;" id="elbgcbzedwlzp" class="animable"></path><path d="M266.57,25.73l.3.5a3.43,3.43,0,0,0,1.42,1.3l.53.26-.5.31A3.36,3.36,0,0,0,267,29.51l-.26.53-.3-.5A3.45,3.45,0,0,0,265,28.23L264.5,28l.51-.3a3.43,3.43,0,0,0,1.3-1.42Z" style="fill: rgb(12, 22, 51); transform-origin: 266.66px 27.885px;" id="eljs0uzxqbylq" class="animable"></path><path d="M209.3,51.26l.3.5A3.45,3.45,0,0,0,211,53.07l.52.26-.5.3a3.43,3.43,0,0,0-1.3,1.42l-.26.52-.31-.5a3.42,3.42,0,0,0-1.41-1.31l-.53-.26.5-.3A3.39,3.39,0,0,0,209,51.78Z" style="fill: rgb(12, 22, 51); transform-origin: 209.365px 53.415px;" id="elvfbp3b19xk" class="animable"></path><path d="M167.44,324l.3.5a3.45,3.45,0,0,0,1.42,1.31l.52.26-.5.3a3.43,3.43,0,0,0-1.3,1.42l-.26.52-.3-.5a3.51,3.51,0,0,0-1.42-1.31l-.53-.26.5-.3a3.39,3.39,0,0,0,1.31-1.42Z" style="fill: rgb(12, 22, 51); transform-origin: 167.525px 326.155px;" id="elc4erimx3t59" class="animable"></path></g><g id="freepik--light-bulb--inject-112" class="animable animator-active" style="transform-origin: 246.784px 258.63px;"><path d="M314.58,397.83l-124-.29c-5.14,0-9.3-3.63-9.29-8.08h0c0-4.44,4.19-8,9.33-8l124,.29c5.14,0,9.29,3.62,9.28,8.07h0C323.89,394.24,319.72,397.84,314.58,397.83Z" style="fill: rgb(69, 90, 100); transform-origin: 252.595px 389.645px;" id="el6u7dmoja63" class="animable"></path><path d="M314.58,378.27l-124-.28c-5.14,0-9.3-3.63-9.29-8.08h0c0-4.45,4.19-8,9.33-8l124,.28c5.14,0,9.29,3.63,9.28,8.08h0C323.89,374.69,319.72,378.28,314.58,378.27Z" style="fill: rgb(69, 90, 100); transform-origin: 252.595px 370.09px;" id="elkiy3xm6fpnd" class="animable"></path><path d="M309.6,400.75l-113.52-.26a8.52,8.52,0,0,0,0,17l12.46,0L225,449.06a11,11,0,0,0,9.67,5.88l40.57.09A10.94,10.94,0,0,0,285,449.1l16.14-31.33,8.47,0a8.52,8.52,0,0,0,0-17Z" style="fill: rgb(69, 90, 100); transform-origin: 252.845px 427.76px;" id="eli9zg7xrvxo" class="animable"></path><path d="M348.59,268.67h0s-.31.48-.92,1.37l-2.7,4L343,277c-.72,1.09-1.43,2.34-2.25,3.66l-2.6,4.3c-.95,1.52-1.77,3.25-2.75,5-.48.9-1,1.82-1.48,2.76-.25.48-.5,1-.76,1.44s-.47,1-.71,1.51c-1,2.05-2,4.19-3,6.44l-2.94,7.19c-.93,2.53-1.85,5.19-2.8,7.94A158,158,0,0,0,319,335.33a105,105,0,0,0-2,20.95v.17h-.16l-132.35.07h-.21l0-.21a135.89,135.89,0,0,0-11.94-44.75,175.18,175.18,0,0,0-11.77-21.67c-2.24-3.53-4.62-7-7.15-10.41s-5.29-6.66-8-10l-.33-.4h.53l-.19.4a128.3,128.3,0,0,1-24.69-54.41c-.54-2.54-.87-5.12-1.27-7.7-.16-1.3-.28-2.6-.42-3.9l-.2-2-.13-2c-.07-1.31-.19-2.62-.23-3.94s0-2.64-.08-4,0-2.64,0-4,0-2.66.12-4a131.92,131.92,0,0,1,5.7-31.61A129,129,0,0,1,178.32,82a131.08,131.08,0,0,1,19.23-10,125.39,125.39,0,0,1,20.25-6.47,129.29,129.29,0,0,1,40.94-2.75,133.8,133.8,0,0,1,19.56,3.33,137.79,137.79,0,0,1,18.33,6.12,142.51,142.51,0,0,1,16.71,8.54,139.38,139.38,0,0,1,14.83,10.51,129.6,129.6,0,0,1,23.45,25.19,126.47,126.47,0,0,1,15,28c1,2.34,1.69,4.74,2.51,7.08s1.36,4.72,2,7c.53,2.36,1.11,4.67,1.57,7,.2,1.16.41,2.3.61,3.44s.42,2.27.54,3.41A129.72,129.72,0,0,1,375,198.09,128,128,0,0,1,366,238.24a134.18,134.18,0,0,1-6.42,13.61c-2.12,3.82-4.06,7-5.72,9.44l-2.21,3.25-1.7,2.27-1.39,1.86,1.34-1.86,1.68-2.31,2.2-3.27c1.64-2.48,3.56-5.63,5.66-9.45a136,136,0,0,0,6.37-13.62,128.92,128.92,0,0,0,7.73-65.75c-.12-1.14-.34-2.26-.54-3.4s-.41-2.28-.62-3.43c-.45-2.3-1-4.6-1.57-7s-1.28-4.67-2-7-1.52-4.73-2.51-7.06a125.51,125.51,0,0,0-15-27.88A129.36,129.36,0,0,0,327.9,91.59a142,142,0,0,0-14.79-10.46,140,140,0,0,0-16.66-8.49,137.2,137.2,0,0,0-18.26-6.09,131.66,131.66,0,0,0-19.5-3.31A128.59,128.59,0,0,0,217.91,66a124.42,124.42,0,0,0-20.17,6.45,130.51,130.51,0,0,0-19.15,10,128.51,128.51,0,0,0-53.86,69.85,131.42,131.42,0,0,0-5.68,31.49c-.07,1.32-.08,2.64-.12,4s-.11,2.63-.05,3.95.05,2.63.08,3.94.15,2.62.23,3.92l.12,2,.2,2c.14,1.29.27,2.59.43,3.88.39,2.57.72,5.14,1.25,7.67a127.83,127.83,0,0,0,24.58,54.2l.32.41h-.52l.2-.41c2.73,3.31,5.54,6.55,8,10s4.92,6.91,7.16,10.45a172.72,172.72,0,0,1,11.79,21.73,136.32,136.32,0,0,1,12,44.91l-.22-.21,132.35.07-.16.17a105.31,105.31,0,0,1,2.06-21,160.45,160.45,0,0,1,4.68-18.14c1-2.75,1.89-5.41,2.83-7.94s2-4.9,3-7.2,2.07-4.39,3-6.43l.71-1.51.77-1.44c.51-.94,1-1.86,1.49-2.76,1-1.77,1.82-3.5,2.77-5l2.62-4.29c.82-1.32,1.54-2.57,2.27-3.65s1.41-2.06,2-2.93l2.74-4,1-1.35h0Z" style="fill: rgb(38, 50, 56); transform-origin: 246.784px 209.375px;" id="elkopa96gwu1c" class="animable"></path><path d="M136.73,233.6a1,1,0,0,1-.11-.28c-.08-.22-.17-.5-.29-.85-.26-.78-.61-1.87-1.06-3.26l-.76-2.36c-.25-.87-.47-1.83-.73-2.85-.5-2.06-1.17-4.38-1.6-7-.24-1.31-.49-2.68-.76-4.11s-.39-2.94-.6-4.5c-.47-3.1-.62-6.44-.85-10a138.63,138.63,0,0,1,1-22.88,139.57,139.57,0,0,1,5.09-22.33c1.16-3.33,2.2-6.51,3.48-9.38.62-1.44,1.15-2.86,1.78-4.17l1.83-3.76c1.11-2.42,2.38-4.48,3.4-6.33.53-.91,1-1.78,1.47-2.55l1.36-2.08,1.89-2.86.5-.73c.12-.17.18-.25.19-.24s0,.09-.14.27l-.46.76-1.81,2.91-1.32,2.09c-.46.78-.91,1.66-1.42,2.58-1,1.86-2.25,3.92-3.33,6.35l-1.8,3.76c-.61,1.31-1.13,2.73-1.74,4.17-1.26,2.86-2.28,6-3.42,9.36a142.21,142.21,0,0,0-5,22.25,142.18,142.18,0,0,0-1.07,22.79c.22,3.5.35,6.84.8,9.93.2,1.55.32,3.06.57,4.49s.49,2.79.73,4.1c.39,2.63,1,5,1.51,7,.25,1,.46,2,.69,2.86s.5,1.65.71,2.37c.41,1.4.74,2.5,1,3.28l.24.86A1.11,1.11,0,0,1,136.73,233.6Z" style="fill: rgb(38, 50, 56); transform-origin: 140.914px 177.34px;" id="elqpm6yipmfb" class="animable"></path><path d="M174.93,99a84.9,84.9,0,0,1-6.88,6.28,80.72,80.72,0,0,1-7.23,5.89,84.11,84.11,0,0,1,6.89-6.28A82,82,0,0,1,174.93,99Z" style="fill: rgb(38, 50, 56); transform-origin: 167.875px 105.085px;" id="elz6v6zbe1zz" class="animable"></path><path d="M350,248.11s0-.08.09-.23l.3-.65,1.19-2.46.87-1.77c.31-.65.61-1.38,1-2.15.66-1.55,1.49-3.28,2.22-5.27l1.2-3.11c.41-1.08.76-2.23,1.16-3.41.84-2.35,1.53-4.92,2.3-7.62a140.11,140.11,0,0,0,3.46-17.88,142.32,142.32,0,0,0,.91-18.2c-.11-2.8-.16-5.47-.42-8-.11-1.24-.18-2.44-.32-3.59s-.29-2.25-.42-3.3c-.23-2.11-.62-4-.89-5.65-.15-.83-.27-1.61-.41-2.32s-.3-1.34-.43-1.92l-.57-2.68c-.05-.28-.1-.51-.13-.7a.72.72,0,0,1,0-.24,1.33,1.33,0,0,1,.08.23c.05.19.11.41.18.69.17.65.39,1.53.67,2.65l.47,1.92c.16.71.29,1.48.45,2.31.3,1.66.72,3.55,1,5.66l.46,3.3c.15,1.16.23,2.36.35,3.61.28,2.48.35,5.16.47,8a125.8,125.8,0,0,1-4.38,36.22c-.79,2.7-1.5,5.28-2.36,7.63-.42,1.18-.77,2.33-1.2,3.41l-1.23,3.1c-.75,2-1.6,3.72-2.29,5.26-.36.77-.67,1.49-1,2.14l-.92,1.75-1.28,2.42-.34.62A.87.87,0,0,1,350,248.11Z" style="fill: rgb(38, 50, 56); transform-origin: 357.64px 202.535px;" id="elq15dgfzh2in" class="animable"></path></g><g id="freepik--Robot--inject-112" class="animable" style="transform-origin: 329.393px 125.004px;"><path d="M308.5,125.69c-6.84-3.92-14-7.49-21.69-9.19a9.1,9.1,0,0,0-3.28-.28,3.5,3.5,0,0,0-2.65,1.76c-.66,1.37,0,3,.81,4.27,1.85,2.8,4.62,4.83,7.41,6.68,7.65,5.07,15.86,9.2,24,13.32-1-5.84-3.08-10.85-4.65-16.56" style="fill: rgb(12, 22, 51); transform-origin: 296.855px 129.214px;" id="ela8tyqpqx0bu" class="animable"></path><path d="M360.94,140.76c2.24,7.56,4.93,15.08,9.31,21.63a9,9,0,0,0,2.19,2.47,3.44,3.44,0,0,0,3.13.56c1.42-.53,2.1-2.15,2.36-3.64.6-3.3,0-6.69-.73-9.95-2-9-5.1-17.61-8.17-26.25-3.29,4.93-5.28,10-8.09,15.18" style="fill: rgb(12, 22, 51); transform-origin: 369.558px 145.579px;" id="elsi41jkyaa6g" class="animable"></path><path d="M308.4,125.53s.53,52.35,29.91,53.38,30.61-53,30.61-53.38c0,0-3.47-7.8-30.26-7.5S308.4,125.53,308.4,125.53Z" style="fill: rgb(12, 22, 51); transform-origin: 338.66px 148.473px;" id="el7vj4zpgrarb" class="animable"></path><path d="M347.42,146.32a10.13,10.13,0,1,1-9.36-10.84A10.13,10.13,0,0,1,347.42,146.32Z" style="fill: rgb(38, 50, 56); transform-origin: 337.317px 145.583px;" id="elf9b2nu3r3tq" class="animable"></path><path d="M344.68,146.12a7.38,7.38,0,1,1-6.82-7.9A7.39,7.39,0,0,1,344.68,146.12Z" style="fill: rgb(255, 255, 255); transform-origin: 337.319px 145.58px;" id="elt67r923b4oi" class="animable"></path><path d="M341.12,147.47a7.57,7.57,0,0,1-.07-1.22c0-.77,0-1.85,0-3.18l.08.14L337.3,141h.21l-3.83,2.15c-.1.18.14-.23.12-.19h0v1.13c0,.37,0,.75,0,1.12,0,.73,0,1.44,0,2.13l-.1-.19,3.75,2.29h-.17c1.17-.63,2.14-1.13,2.82-1.48a7.29,7.29,0,0,1,1.1-.51,6.92,6.92,0,0,1-1,.63c-.64.39-1.6,1-2.8,1.65l-.08.05-.08-.05-3.8-2.21-.11-.06v-.13c0-.69,0-1.4,0-2.13,0-.37,0-.74,0-1.12V143h0s.22-.37.11-.2l3.85-2.13.11-.06.1.06,3.75,2.3.09,0v.09c0,1.38-.08,2.49-.12,3.25A6.27,6.27,0,0,1,341.12,147.47Z" style="fill: rgb(12, 22, 51); transform-origin: 337.335px 145.195px;" id="eld9vtxnt3dj" class="animable"></path><path d="M308.27,125.49s.06,0,.16,0l.44.15,1.71.6,1.22.44,1.49.46c1.06.32,2.26.73,3.63,1l2.13.54c.74.19,1.52.33,2.33.5,1.6.37,3.35.62,5.17.92a84.29,84.29,0,0,0,24,0c1.83-.29,3.57-.54,5.17-.91.81-.18,1.59-.32,2.33-.5l2.13-.55c1.37-.32,2.57-.73,3.64-1,.53-.16,1-.3,1.48-.45l1.23-.44,1.7-.6.44-.15.16-.05s-.05,0-.15.07l-.44.17-1.69.63-1.22.46c-.45.16-1,.3-1.48.48-1.06.32-2.26.74-3.63,1.07l-2.13.56c-.74.19-1.52.34-2.33.52-1.61.37-3.35.63-5.18.93a82.74,82.74,0,0,1-24.07,0c-1.84-.3-3.58-.56-5.19-.94-.8-.17-1.59-.32-2.33-.51l-2.13-.56c-1.37-.33-2.56-.75-3.63-1.08l-1.48-.47-1.22-.46-1.69-.64-.44-.17Z" style="fill: rgb(38, 50, 56); transform-origin: 338.55px 128.335px;" id="elofdqnx9atub" class="animable"></path><g id="el52k00ju3ise"><g style="opacity: 0.3; transform-origin: 338.66px 124.738px;" class="animable"><path d="M308.4,125.53s3.47-7.19,30.26-7.5,30.26,7.5,30.26,7.5S341.9,138.86,308.4,125.53Z" id="ellol37wrhraq" class="animable" style="transform-origin: 338.66px 124.738px;"></path></g></g><path d="M317.61,162.79a.34.34,0,0,1-.05-.08l-.13-.23-.49-.92-.34-.66-.38-.81c-.27-.58-.57-1.24-.87-2l-.48-1.17-.47-1.28c-.35-.88-.64-1.85-1-2.86-.63-2-1.24-4.29-1.78-6.69s-.93-4.7-1.25-6.81-.53-4-.65-5.61c-.08-.8-.13-1.52-.17-2.16s-.07-1.19-.09-1.64l0-1v-.37s0,0,0,.1l0,.26c0,.26,0,.6.08,1s.06,1,.12,1.63.11,1.36.19,2.16c.15,1.6.4,3.49.7,5.6s.74,4.39,1.26,6.79,1.15,4.64,1.76,6.67c.34,1,.62,2,1,2.86l.46,1.29.47,1.17c.28.75.58,1.41.84,2l.36.82.33.67.45.93.11.24Z" style="fill: rgb(255, 255, 255); transform-origin: 313.535px 145.645px;" id="elv9fjcmgrrnh" class="animable"></path><path d="M331.77,175.38a2.57,2.57,0,0,1-.47-.06,8.27,8.27,0,0,1-1.25-.3,12.87,12.87,0,0,1-1.78-.68,14.83,14.83,0,0,1-2-1.18,14.6,14.6,0,0,1-1.79-1.5,12.4,12.4,0,0,1-1.25-1.45,8.5,8.5,0,0,1-.7-1.07,2.28,2.28,0,0,1-.22-.42s.37.56,1,1.4a14.82,14.82,0,0,0,1.26,1.4,16,16,0,0,0,1.78,1.47,15,15,0,0,0,2,1.17,14.78,14.78,0,0,0,1.74.72C331.11,175.22,331.77,175.34,331.77,175.38Z" style="fill: rgb(255, 255, 255); transform-origin: 327.04px 172.05px;" id="el3inmlyt4gp2" class="animable"></path><path d="M337.89,156.91l-.28,0c-.18,0-.46,0-.81,0a10.41,10.41,0,0,1-2.92-.47,11.6,11.6,0,0,1-3.89-2.05,10.8,10.8,0,0,1-4.15-9.54,12.54,12.54,0,0,1,.42-2.33,13.13,13.13,0,0,1,.74-1.91,10.63,10.63,0,0,1,1.66-2.47,7.75,7.75,0,0,1,.56-.57c.14-.13.21-.19.22-.18s-.27.28-.72.81a10.68,10.68,0,0,0-1.58,2.47,12,12,0,0,0-.71,1.9,12.29,12.29,0,0,0-.39,2.29,10.68,10.68,0,0,0,4.07,9.38,13,13,0,0,0,1.94,1.28,14.12,14.12,0,0,0,1.87.78,11.52,11.52,0,0,0,2.89.53C337.5,156.91,337.89,156.89,337.89,156.91Z" style="fill: rgb(255, 255, 255); transform-origin: 331.842px 147.149px;" id="elzrvkdckcehr" class="animable"></path><path d="M336.62,71.1S311,70.79,307,93s17.61,22.59,23.84,23c2.83.19,8.87.21,14.2.11,11.81-.2,20.15-2.49,23-13.44a20.66,20.66,0,0,0,.64-3.93C369.37,86.74,361.24,70.51,336.62,71.1Z" style="fill: rgb(12, 22, 51); transform-origin: 337.615px 93.6268px;" id="elwbgp2ix7zk" class="animable"></path><path d="M355.2,104.89l-37.21.58a7.06,7.06,0,0,1-7.17-7h0a7.07,7.07,0,0,1,6.95-7.18L355,90.76a7.08,7.08,0,0,1,7.18,7h0A7.07,7.07,0,0,1,355.2,104.89Z" style="fill: rgb(38, 50, 56); transform-origin: 336.5px 98.1151px;" id="elvrhkgq1fn89" class="animable"></path><path d="M325.71,97.75a2.27,2.27,0,1,1-1.78-2.66A2.27,2.27,0,0,1,325.71,97.75Z" style="fill: rgb(255, 255, 255); transform-origin: 323.482px 97.3153px;" id="el7ru1hcr9in7" class="animable"></path><path d="M351.71,97.33a2.27,2.27,0,1,1-1.79-2.66A2.27,2.27,0,0,1,351.71,97.33Z" style="fill: rgb(255, 255, 255); transform-origin: 349.482px 96.8973px;" id="elhy3gck3pre" class="animable"></path><path d="M332.23,96.7c.17,0,.08.81.58,1.87a4.84,4.84,0,0,0,1.2,1.58,3.92,3.92,0,0,0,2.13.94,3.87,3.87,0,0,0,2.27-.54,4.82,4.82,0,0,0,1.47-1.34c.68-.95.74-1.74.91-1.73s.13.2.13.58a3.64,3.64,0,0,1-.41,1.53,4.75,4.75,0,0,1-1.59,1.77,4.54,4.54,0,0,1-2.87.77,4.46,4.46,0,0,1-2.68-1.28,4.67,4.67,0,0,1-1.25-2,3.52,3.52,0,0,1-.13-1.58C332.06,96.87,332.16,96.69,332.23,96.7Z" style="fill: rgb(255, 255, 255); transform-origin: 336.439px 99.4206px;" id="elgoke43ixn5c" class="animable"></path><path d="M333.38,72.76h-.09l-.27,0c-.24,0-.59,0-1,.08a29,29,0,0,0-3.78.63,28,28,0,0,0-5.36,1.86A27.55,27.55,0,0,0,317,79.05a27.91,27.91,0,0,0-7.57,10,27.79,27.79,0,0,0-1.33,3.59c-.14.44-.21.78-.28,1l-.08.26,0,.09s0,0,0-.09l.06-.27c.05-.23.11-.58.24-1A25.52,25.52,0,0,1,309.26,89a26.85,26.85,0,0,1,2.81-5,27,27,0,0,1,16.09-10.64A26.09,26.09,0,0,1,332,72.8c.45,0,.81,0,1,0h.36Z" style="fill: rgb(255, 255, 255); transform-origin: 320.56px 83.375px;" id="el4tgozo49ygj" class="animable"></path><path d="M308.32,103.49a2.82,2.82,0,0,1-.37-.8,11.62,11.62,0,0,1-.52-2,12,12,0,0,1-.13-2.11,3.29,3.29,0,0,1,.1-.87c.07,0,0,1.34.24,3S308.38,103.47,308.32,103.49Z" style="fill: rgb(255, 255, 255); transform-origin: 307.81px 100.6px;" id="el9m5gzr2fy5l" class="animable"></path><path d="M349.05,89.46c0,.06-4.9.11-10.94.11s-10.95,0-10.95-.11,4.9-.1,10.95-.1S349.05,89.41,349.05,89.46Z" style="fill: rgb(255, 255, 255); transform-origin: 338.105px 89.4649px;" id="el460xskug9q2" class="animable"></path><path d="M330.37,114.42s-.06,0-.18,0l-.53,0c-.24,0-.52,0-.85,0s-.71,0-1.13,0a27.54,27.54,0,0,1-2.92-.18,32.36,32.36,0,0,1-3.53-.61,29.74,29.74,0,0,1-3.43-1,27.26,27.26,0,0,1-2.69-1.14c-.38-.18-.71-.36-1-.52s-.54-.29-.74-.41l-.46-.28-.15-.11s.06,0,.17.07l.48.24c.2.11.45.25.75.39s.63.32,1,.48c.75.35,1.66.73,2.69,1.1a35,35,0,0,0,3.42,1,34.31,34.31,0,0,0,3.51.62c1.08.13,2.07.2,2.9.22.41,0,.79,0,1.12,0h1.56Z" style="fill: rgb(255, 255, 255); transform-origin: 321.565px 112.295px;" id="elp17gay3zqz" class="animable"></path><path d="M361.69,128.73l-.09,0-.29.11-1.11.4c-.48.17-1.07.37-1.77.58s-1.49.47-2.37.69l-1.39.37-1.52.35c-1,.25-2.18.45-3.37.68a78.08,78.08,0,0,1-7.83.92,77,77,0,0,1-7.87,0c-1.21-.08-2.36-.14-3.43-.26l-1.55-.16-1.43-.2c-.91-.11-1.72-.27-2.44-.39s-1.33-.25-1.83-.36l-1.15-.26-.3-.07-.1,0s0,0,.11,0l.3.05,1.16.22c.5.1,1.11.22,1.83.32s1.53.27,2.44.37l1.43.18c.49.06,1,.1,1.54.15,1.07.11,2.22.17,3.42.24,2.42.1,5.08.1,7.86-.06s5.42-.51,7.8-.9c1.19-.22,2.32-.41,3.37-.66.52-.12,1-.22,1.52-.34l1.39-.35c.89-.21,1.68-.46,2.37-.66s1.3-.39,1.79-.55l1.12-.36.29-.09Z" style="fill: rgb(255, 255, 255); transform-origin: 341.77px 130.81px;" id="el91c2xtux1n" class="animable"></path></g><g id="freepik--Rocket--inject-112" class="animable" style="transform-origin: 128.268px 282.119px;"><path d="M118.37,300.86l.07,13.87s23-13,16.26-25.45Z" style="fill: rgb(12, 22, 51); transform-origin: 127.153px 302.005px;" id="elyn00z9kgr6" class="animable"></path><path d="M120.61,268.82S104,262.75,91.44,274l12.92,7.29Z" style="fill: rgb(12, 22, 51); transform-origin: 106.025px 274.237px;" id="elxklvq4fbrvb" class="animable"></path><path d="M104.36,281.33c.52.68,14,19.53,14,19.53l35.22-25A12.86,12.86,0,0,0,156,257.1h0a12.87,12.87,0,0,0-17.67-1.89Z" style="fill: rgb(245, 245, 245); transform-origin: 131.684px 276.701px;" id="elavjsemjervq" class="animable"></path><path d="M104.36,281.33a2.07,2.07,0,0,1,.28-.24l.88-.71,3.44-2.69,12.76-9.94,8.85-6.86,4.94-3.82,2.59-2a13.55,13.55,0,0,1,2.93-1.71,13.19,13.19,0,0,1,1.63-.59,14.14,14.14,0,0,1,1.72-.34,12.49,12.49,0,0,1,3.56,0,13,13,0,0,1,6.65,2.95,13.28,13.28,0,0,1,2.51,2.82,13.76,13.76,0,0,1,1.63,3.47,13.33,13.33,0,0,1-.1,7.76,13,13,0,0,1-4.19,6.13c-2,1.5-3.93,2.81-5.85,4.2l-11.12,7.86-19,13.4-.16.11-.11-.15c-4.29-6.06-7.77-11-10.2-14.4l-2.73-3.9-.7-1a2.22,2.22,0,0,1-.22-.34,3.66,3.66,0,0,1,.27.35c.19.24.44.58.76,1l2.83,3.87,10.3,14.19-.26,0,18.93-13.49c3.55-2.51,7.26-5.15,11.1-7.88,1.91-1.38,3.92-2.72,5.82-4.18a12.52,12.52,0,0,0,4-5.89,12.79,12.79,0,0,0,.09-7.45,13.06,13.06,0,0,0-1.56-3.34,12.64,12.64,0,0,0-8.8-5.56,11.88,11.88,0,0,0-3.42,0,13.15,13.15,0,0,0-1.66.32,11.68,11.68,0,0,0-1.57.56c-2.07.83-3.69,2.36-5.41,3.62l-4.92,3.76L122,267.94l-12.88,9.79-3.53,2.67-.94.69Z" style="fill: rgb(38, 50, 56); transform-origin: 131.804px 276.716px;" id="elai89unnpe1" class="animable"></path><path d="M121.24,280.25l-22,15.83s1,2.41,1.55,2.17,17.09-11.5,22.46-15.16a1.74,1.74,0,0,0,.29-2.62h0A1.73,1.73,0,0,0,121.24,280.25Z" style="fill: rgb(12, 22, 51); transform-origin: 111.623px 289.089px;" id="ellrv44aw68x" class="animable"></path><path d="M144.07,270.31a7.36,7.36,0,1,1-7.81-6.87A7.36,7.36,0,0,1,144.07,270.31Z" style="fill: rgb(255, 255, 255); transform-origin: 136.725px 270.785px;" id="elbd994fnrsra" class="animable"></path><path d="M144.07,270.31s-.07-.65-.44-1.74a7.33,7.33,0,0,0-2.93-3.76,7.16,7.16,0,0,0-6.82-.55,7.17,7.17,0,0,0-4.25,7,7.27,7.27,0,0,0,1.65,4.11,7.13,7.13,0,0,0,7.22,2.36,7,7,0,0,0,2.93-1.51,7.25,7.25,0,0,0,2.43-4.1,17.8,17.8,0,0,0,.21-1.79,1.47,1.47,0,0,1,.06.47,5.34,5.34,0,0,1-.08,1.36,7.4,7.4,0,0,1-5.45,6,7.53,7.53,0,0,1-7.69-2.44,7.61,7.61,0,0,1-1.77-4.39,7.6,7.6,0,0,1,4.55-7.44,7.66,7.66,0,0,1,3.95-.56,7.47,7.47,0,0,1,6.18,5.23,5.39,5.39,0,0,1,.25,1.33A1.4,1.4,0,0,1,144.07,270.31Z" style="fill: rgb(38, 50, 56); transform-origin: 136.634px 270.841px;" id="eltskwubg2r2" class="animable"></path><path d="M155.23,274.51c11.83-11.06,9.72-23.87,9.72-23.87-15.91-4.18-26.65,4.57-26.65,4.57C148.89,256.7,154.56,263.11,155.23,274.51Z" style="fill: rgb(12, 22, 51); transform-origin: 151.698px 262.009px;" id="el9z06x82vim4" class="animable"></path></g><g id="freepik--Character--inject-112" class="animable" style="transform-origin: 276.679px 305.925px;"><path d="M280.89,227.42,285,265.19l24.32,8.11,1,11.76L276,282.76s-10.58.26-12.88-13.68l-.56-36.64Z" style="fill: rgb(255, 190, 157); transform-origin: 286.44px 256.24px;" id="el4w5yneffn5i" class="animable"></path><path d="M331.36,284.86a1.66,1.66,0,0,1-1.81.5,1.4,1.4,0,0,1-.39-.19c-.86-.54-.27-2.43-.27-2.43l-4.28-1.91s-6.83,2.22-9.56,4.16-7.49-1.47-7.49-1.47l.69-10,10.22-5.28s-.62.31.32-.94,3.39,0,3.39,0c.58-.58,2.34-.38,2.34-.38l7,2.74a5.12,5.12,0,0,1,3,3.24l1.78,5.65s.7,3.92.23,4.66a1.5,1.5,0,0,1-1.94.51s-1,2.19-1.59,2.12a5.17,5.17,0,0,1-1.68-.91Z" style="fill: rgb(255, 190, 157); transform-origin: 322.126px 276.293px;" id="elg7ubfqc6es" class="animable"></path><path d="M317,283.87a2.89,2.89,0,0,0,.52-.22L319,283a50.14,50.14,0,0,1,5.62-2h-.11l4.28,1.95-.11-.23a5.06,5.06,0,0,0-.2,1.11,2.16,2.16,0,0,0,.22,1.22,1.24,1.24,0,0,0,.52.43,1.67,1.67,0,0,0,.62.2,1.93,1.93,0,0,0,1.28-.32,1.86,1.86,0,0,0,.27-.22l.06-.06,0,0h0l-.28,0h0l.12.1.53.35a4,4,0,0,0,.57.32,1.61,1.61,0,0,0,.33.12.64.64,0,0,0,.43,0,1.4,1.4,0,0,0,.6-.47,5,5,0,0,0,.38-.56,10.39,10.39,0,0,0,.63-1.19l-.31.11a1.76,1.76,0,0,0,1.82-.13,1.44,1.44,0,0,0,.54-.82A4.08,4.08,0,0,0,337,282a24.06,24.06,0,0,0-.38-3.55h0v0c-.3-1-.62-2-.95-3-.2-.65-.4-1.28-.6-1.92a9.43,9.43,0,0,0-.72-1.88,4.86,4.86,0,0,0-1.34-1.51,6,6,0,0,0-1.74-.87l-6.62-2.57h-.05a6.85,6.85,0,0,0-1.28,0,2.11,2.11,0,0,0-1.23.46l.27,0a2.61,2.61,0,0,0-2.36-.48,3.08,3.08,0,0,0-1.64,1.53l.08-.08-7,3.61-1.91,1a3.56,3.56,0,0,0-.65.38,5.75,5.75,0,0,0,.7-.29l1.94-.92,7.11-3.47.05,0,0-.06a2.7,2.7,0,0,1,1.44-1.32,2.23,2.23,0,0,1,2,.43l.14.11.13-.12a1.74,1.74,0,0,1,1-.32,5.93,5.93,0,0,1,1.19,0l-.05,0,6.6,2.61a6.08,6.08,0,0,1,1.63.82,4.38,4.38,0,0,1,1.21,1.36,9.34,9.34,0,0,1,.68,1.8c.19.63.4,1.27.6,1.91.32,1,.65,2,.95,3v0a24.91,24.91,0,0,1,.39,3.47,4.17,4.17,0,0,1-.06.81,1,1,0,0,1-.38.56,1.31,1.31,0,0,1-1.33.08l-.22-.09-.09.21a11.15,11.15,0,0,1-.59,1.14,2.29,2.29,0,0,1-.72.84.4.4,0,0,1-.19,0,1.48,1.48,0,0,1-.27-.1,5.21,5.21,0,0,1-.52-.28c-.17-.11-.34-.22-.5-.34l-.12-.09h0c.26,0-.36,0-.3,0h0v0l0,0-.05.05a1.2,1.2,0,0,1-.21.17,1.47,1.47,0,0,1-1,.26,1.19,1.19,0,0,1-.48-.16.72.72,0,0,1-.37-.28,2.87,2.87,0,0,1,0-2l0-.16-.15-.07-4.3-1.89-.06,0-.05,0a44.24,44.24,0,0,0-5.6,2.16c-.64.3-1.12.55-1.44.73A2.1,2.1,0,0,0,317,283.87Z" style="fill: rgb(235, 153, 110); transform-origin: 322.94px 276.293px;" id="elcf7wx6dwi1p" class="animable"></path><path d="M322.73,270.1a8.6,8.6,0,0,0,2.14,1.31,24.4,24.4,0,0,0,5.86,2l-.2-.22c0,.38.06.79.11,1.21a18.38,18.38,0,0,0,2.18,6.66,14.2,14.2,0,0,0,1.16,1.78c.31.4.5.6.52.58s-.58-.94-1.38-2.52a20.9,20.9,0,0,1-2-6.56c-.05-.41-.08-.81-.11-1.18V273l-.19,0a28.42,28.42,0,0,1-5.81-1.83C323.59,270.5,322.77,270,322.73,270.1Z" style="fill: rgb(235, 153, 110); transform-origin: 328.615px 276.754px;" id="elxn492ugita" class="animable"></path><path d="M328.49,276.14a11.83,11.83,0,0,0,3.09,8.45c.12-.08-1.07-1.75-1.91-4.09S328.64,276.12,328.49,276.14Z" style="fill: rgb(235, 153, 110); transform-origin: 330.035px 280.365px;" id="eli817l3dnia" class="animable"></path><path d="M306.9,280.23s.06.08.2.2a4.53,4.53,0,0,0,.64.46A7.84,7.84,0,0,0,310.5,282a8.19,8.19,0,0,0,4.5-.4,8.57,8.57,0,0,0,4.3-3.73l-.31.1a19,19,0,0,0,7.18,1.85,6.17,6.17,0,0,0,2-.12,1.51,1.51,0,0,0,.91-.61,1.35,1.35,0,0,0,.16-1.07,1.4,1.4,0,0,0-.65-.85l-.78-.43c-2.06-1.11-4-2-5.58-2.73s-3-1.23-3.88-1.57a7.54,7.54,0,0,0-1.47-.46,11,11,0,0,0,1.4.64c.91.39,2.21,1,3.81,1.7s3.47,1.69,5.5,2.82l.77.43a.89.89,0,0,1,.42.56.92.92,0,0,1-.1.71,1,1,0,0,1-.64.39,5.86,5.86,0,0,1-1.84.1,19.19,19.19,0,0,1-7-1.79l-.2-.1-.11.2a8.18,8.18,0,0,1-4,3.58,8,8,0,0,1-4.3.49,8.73,8.73,0,0,1-2.73-.93C307.22,280.43,306.92,280.2,306.9,280.23Z" style="fill: rgb(235, 153, 110); transform-origin: 318.093px 277.064px;" id="eljjfv7u6rko" class="animable"></path><path d="M336.24,421.37a2.08,2.08,0,0,0,0-.94,6.23,6.23,0,0,0-.95-2.4,3.15,3.15,0,0,0-.57-.69,1.07,1.07,0,0,0-1.06-.24.77.77,0,0,0-.47.48,1,1,0,0,0,0,.63,6.3,6.3,0,0,0,.5,1c.36.62.67,1.24,1.14,1.94a1.38,1.38,0,0,0,1.27.57,2.77,2.77,0,0,0,1.22-.54,10.55,10.55,0,0,0,1.79-1.66,9.86,9.86,0,0,0,.71-.92,3.1,3.1,0,0,0,.53-1.06,1,1,0,0,0-.54-1.15,1.21,1.21,0,0,0-1.14.26,7.15,7.15,0,0,0-1.19,1.35,9.25,9.25,0,0,0-1.18,2.29,2.16,2.16,0,0,0-.2.91,17.56,17.56,0,0,1,1.7-3,6.92,6.92,0,0,1,1.15-1.22.73.73,0,0,1,.67-.17.5.5,0,0,1,.22.59,2.47,2.47,0,0,1-.46.85c-.21.3-.44.59-.68.87a11.13,11.13,0,0,1-1.71,1.56,2.3,2.3,0,0,1-1,.44.8.8,0,0,1-.77-.35c-.39-.57-.76-1.28-1.13-1.86a7.7,7.7,0,0,1-.47-.86c-.1-.27,0-.45.14-.52.43-.18.85.31,1.14.72A8.94,8.94,0,0,1,336.24,421.37Z" style="fill: rgb(38, 50, 56); transform-origin: 336.76px 419.035px;" id="elgwblhpeccye" class="animable"></path><polygon points="311.83 422.21 299.71 448.48 280.15 439.44 292.68 406.93 311.83 422.21" style="fill: rgb(255, 190, 157); transform-origin: 295.99px 427.705px;" id="elkykxh2il1a" class="animable"></polygon><path d="M302,446.72l-7.09,13.51S313,479,311.34,483.16l-42.62-20.43,11.71-27.09Z" style="fill: rgb(12, 22, 51); transform-origin: 290.084px 459.4px;" id="els0b1awxowsq" class="animable"></path><path d="M282.62,452.06a1.93,1.93,0,0,0-2.15,1.41,1.84,1.84,0,0,0,1.37,2.15,2,2,0,0,0,2.28-1.5,1.93,1.93,0,0,0-1.68-2.08" style="fill: rgb(224, 224, 224); transform-origin: 282.281px 453.844px;" id="eloal20636bnd" class="animable"></path><g id="elc5j1e9rblg"><g style="opacity: 0.6; transform-origin: 290.162px 471.265px;" class="animable"><path d="M268.72,462.73l1.78-3.4,40.19,20.87s1.51,1.73.65,3Z" style="fill: rgb(255, 255, 255); transform-origin: 290.162px 471.265px;" id="elni9ah0e4syc" class="animable"></path></g></g><path d="M295.71,460.34c-.11.21-1.19-.2-2.54,0s-2.31.79-2.46.62.74-1.23,2.37-1.42S295.85,460.17,295.71,460.34Z" style="fill: rgb(38, 50, 56); transform-origin: 293.208px 460.251px;" id="eldox1tp3hap" class="animable"></path><path d="M299.29,464.34c-.05.22-1.12.14-2.25.68s-1.78,1.38-2,1.27.23-1.35,1.65-2S299.38,464.13,299.29,464.34Z" style="fill: rgb(38, 50, 56); transform-origin: 297.141px 465.132px;" id="eldzaoetvztcb" class="animable"></path><path d="M299.27,470.9c-.21,0,0-1.22,1.08-2.11s2.27-.87,2.27-.65-.89.54-1.76,1.27S299.48,471,299.27,470.9Z" style="fill: rgb(38, 50, 56); transform-origin: 300.909px 469.46px;" id="eln16urzxofmr" class="animable"></path><path d="M297.74,455.14c-.18.15-1-.6-2.21-1.08s-2.31-.55-2.33-.78,1.21-.55,2.64,0S297.92,455,297.74,455.14Z" style="fill: rgb(38, 50, 56); transform-origin: 295.485px 454.068px;" id="eljscyc3hsiqg" class="animable"></path><path d="M306,443.22l31.95-80s-.72-13.64-3.23-17.95-78.63-29.44-78.63-29.44-19.39-4.67-32.31,0-22.62,20.82-20.83,29.8S213,361.91,213,361.91l55.3,1L298.8,374l-20.55,58.89Z" style="fill: rgb(38, 50, 56); transform-origin: 270.343px 378.487px;" id="el2ur4n6pwnrw" class="animable"></path><polygon points="334.41 388.57 335.13 417.5 313.59 418.02 310.49 383.32 334.41 388.57" style="fill: rgb(255, 190, 157); transform-origin: 322.81px 400.67px;" id="elu8dn68bz8kp" class="animable"></polygon><path d="M336.41,414.91,336,430.16s24.54,8.82,24.86,13.33l-47.26.48-1.45-29.48Z" style="fill: rgb(12, 22, 51); transform-origin: 336.505px 429.23px;" id="el2urkc4rhmzf" class="animable"></path><path d="M321.38,428.26a1.93,1.93,0,0,0-1.31,2.22,1.86,1.86,0,0,0,2.19,1.32,2,2,0,0,0,1.37-2.36,1.92,1.92,0,0,0-2.42-1.12" style="fill: rgb(224, 224, 224); transform-origin: 321.856px 430.028px;" id="elc729i88if8n" class="animable"></path><g id="el8cotmdbu0ky"><g style="opacity: 0.6; transform-origin: 337.259px 442.085px;" class="animable"><path d="M313.62,444l.09-3.83,45.28,1s2.12.89,1.89,2.38Z" style="fill: rgb(255, 255, 255); transform-origin: 337.259px 442.085px;" id="eldamqvbc2unq" class="animable"></path></g></g><path d="M336.78,429.91c0,.23-1.16.35-2.28,1.1s-1.73,1.73-1.94,1.64.12-1.42,1.5-2.31S336.83,429.7,336.78,429.91Z" style="fill: rgb(38, 50, 56); transform-origin: 334.642px 431.183px;" id="el2zbld3jqlui" class="animable"></path><path d="M341.76,431.91c.06.22-.94.63-1.71,1.61s-1,2-1.22,2-.39-1.31.59-2.52S341.75,431.69,341.76,431.91Z" style="fill: rgb(38, 50, 56); transform-origin: 340.211px 433.669px;" id="el070qiqk34gf7" class="animable"></path><path d="M344.64,437.81c-.21.06-.55-1.09,0-2.36s1.66-1.79,1.76-1.6-.56.88-1,1.93S344.86,437.79,344.64,437.81Z" style="fill: rgb(38, 50, 56); transform-origin: 345.376px 435.812px;" id="el7modqaar7t7" class="animable"></path><path d="M336.31,424.35c-.09.21-1.16-.1-2.46,0s-2.32.52-2.44.33.85-1,2.39-1.13S336.42,424.16,336.31,424.35Z" style="fill: rgb(38, 50, 56); transform-origin: 333.859px 424.132px;" id="elftvk26t6jxj" class="animable"></path><path d="M321.83,308.27s12.91-1,14.34,13S339,400.59,339,400.59l-30.16,2.52-4.67-66.78-48.11-20.47S313.21,306.48,321.83,308.27Z" style="fill: rgb(38, 50, 56); transform-origin: 297.53px 355.576px;" id="elyxhnghydp4" class="animable"></path><path d="M268.64,289.38s7.83,22,6.34,24.41-21.64,12.51-21.64,12.51l-50.4,19.36s-5.17-8.23-5.17-20.88,17.53-35.4,17.53-35.4Z" style="fill: rgb(38, 50, 56); transform-origin: 236.469px 317.52px;" id="eldh3e1l1f7gu" class="animable"></path><path d="M253.7,314.74s.07.05.23.13l.72.33,2.79,1.24L267.92,321l36.17,15.57-.17-.23c.46,6.6.95,13.73,1.47,21.1,1.22,17.23,2.35,33.11,3.25,45.68v.23l.23,0,22-1.93,6-.56,1.58-.17a3.25,3.25,0,0,0,.54-.08h-.54l-1.59.1-6.06.45-22,1.73.24.21c-.86-12.57-1.95-28.46-3.13-45.69-.52-7.37-1-14.5-1.49-21.09v-.17l-.15-.06-36.25-15.39-10.54-4.42-2.82-1.16-.74-.29Z" style="fill: rgb(69, 90, 100); transform-origin: 296.345px 359.045px;" id="elnw533qy0s7" class="animable"></path><path d="M213.61,316.94a8.53,8.53,0,0,0,1.42-.39l3.79-1.22a83,83,0,0,1,12.7-3.21,37.4,37.4,0,0,1,13,.16,52.91,52.91,0,0,1,5.21,1.51,6.25,6.25,0,0,0-1.31-.66,22.5,22.5,0,0,0-3.81-1.23,34.88,34.88,0,0,0-13.17-.34A70.87,70.87,0,0,0,218.7,315c-1.59.56-2.87,1.05-3.74,1.39A7.21,7.21,0,0,0,213.61,316.94Z" style="fill: rgb(69, 90, 100); transform-origin: 231.67px 314.015px;" id="elu12jnqz1kra" class="animable"></path><path d="M220.74,305.36a35.8,35.8,0,0,1,4.4,0c1.36.09,3,.3,4.78.51s3.76.45,5.8.84a27,27,0,0,1,9.88,3.66,31.78,31.78,0,0,1,3.42,2.76,4,4,0,0,0-.73-.95,15.07,15.07,0,0,0-2.47-2.14,25.26,25.26,0,0,0-10-3.88c-2.07-.4-4.06-.62-5.86-.81s-3.42-.35-4.8-.39a18.87,18.87,0,0,0-3.27.14A3.93,3.93,0,0,0,220.74,305.36Z" style="fill: rgb(69, 90, 100); transform-origin: 234.88px 309.036px;" id="el1pv1pp4micp" class="animable"></path><path d="M243,128.89c-5.8-1-10.9,1.24-15.79,4.51a29.08,29.08,0,0,0-10.7,13.69,28.79,28.79,0,0,0-1.06,18.23,23,23,0,0,0,11.32,14.08c7.54,3.83,17.19,2.5,23.94-2.6s10.61-13.54,10.93-22a28,28,0,0,0-4.42-16.62A21.29,21.29,0,0,0,243,128.89" style="fill: rgb(38, 50, 56); transform-origin: 238.063px 155.129px;" id="elh3i481xjgfi" class="animable"></path><path d="M226.51,148.61c.85-2.22.52-4.7.85-7.05.74-5.18,4.91-9.33,9.74-11.35,4.49-1.88,10-1.47,15.38.28a20.67,20.67,0,0,1,9.66,6.3,16.24,16.24,0,0,1,3,14.6l-26.49-3.85c-2.48,2.05-5,4.13-8,5.28a5.49,5.49,0,0,1-2.76.44,2.46,2.46,0,0,1-2.06-1.7C225.54,150.56,226.14,149.57,226.51,148.61Z" style="fill: rgb(38, 50, 56); transform-origin: 245.75px 141.132px;" id="elaoixx6b3yt9" class="animable"></path><path d="M253,137.8l-23.13,4.9a4.33,4.33,0,0,0-4,4.23l.28,50.06a15.55,15.55,0,0,0,3.26,9.43l2.21,2.85c5,6.49,15.21,5.83,19.05-1.42a5.6,5.6,0,0,0,.54-1.31c.07-.45.19-.75.21-1.13l.45-4.88c.22-4.46.25-9,.25-8.94s9.47-1.2,11.89-13.4c1.21-6.06,1.29-16.08,1.09-24.28C264.94,146.53,260.41,137.31,253,137.8Z" style="fill: rgb(255, 190, 157); transform-origin: 245.527px 175.762px;" id="el21bh0okwf0e" class="animable"></path><path d="M261.22,164.14a1.58,1.58,0,0,1-1.58,1.53,1.51,1.51,0,0,1-1.57-1.48,1.57,1.57,0,0,1,1.58-1.53A1.5,1.5,0,0,1,261.22,164.14Z" style="fill: rgb(38, 50, 56); transform-origin: 259.645px 164.165px;" id="elnva1f093ie" class="animable"></path><path d="M262.74,159c-.2.2-1.36-.73-3.05-.79s-3,.74-3.15.53.13-.46.69-.84a4.35,4.35,0,0,1,2.52-.67,4.12,4.12,0,0,1,2.42.89C262.68,158.57,262.84,159,262.74,159Z" style="fill: rgb(38, 50, 56); transform-origin: 259.634px 158.127px;" id="elpg0uzr4w69" class="animable"></path><path d="M245.57,163.33a1.58,1.58,0,0,1-1.58,1.53,1.51,1.51,0,0,1-1.56-1.48,1.57,1.57,0,0,1,1.58-1.53A1.5,1.5,0,0,1,245.57,163.33Z" style="fill: rgb(38, 50, 56); transform-origin: 244px 163.355px;" id="el90i6t7nb0nw" class="animable"></path><path d="M246.66,158.62c-.2.2-1.36-.73-3.06-.79s-3,.74-3.14.52.13-.46.68-.83a4.33,4.33,0,0,1,2.53-.67,4.12,4.12,0,0,1,2.42.89C246.6,158.16,246.76,158.53,246.66,158.62Z" style="fill: rgb(38, 50, 56); transform-origin: 243.556px 157.747px;" id="elko6393utxqg" class="animable"></path><path d="M251.74,171.5a11.59,11.59,0,0,1,2.77-.39c.43,0,.85-.1.93-.39a2.15,2.15,0,0,0-.24-1.29c-.36-1.06-.75-2.18-1.15-3.34-1.59-4.76-2.73-8.67-2.54-8.73s1.64,3.74,3.24,8.5c.38,1.17.75,2.29,1.09,3.36a2.46,2.46,0,0,1,.16,1.71,1.06,1.06,0,0,1-.73.6,3,3,0,0,1-.74.08A11,11,0,0,1,251.74,171.5Z" style="fill: rgb(38, 50, 56); transform-origin: 253.787px 164.506px;" id="elqb1g756u38" class="animable"></path><path d="M252.13,191.59a31.22,31.22,0,0,1-16.26-5s3.8,8.66,16.13,8Z" style="fill: rgb(235, 153, 110); transform-origin: 244px 190.608px;" id="el1b56c4m088h" class="animable"></path><path d="M250.87,175.56a3,3,0,0,0-2.7-1.24,2.79,2.79,0,0,0-2,1,1.76,1.76,0,0,0-.21,2,2,2,0,0,0,2.2.64,6.36,6.36,0,0,0,2.21-1.2,1.8,1.8,0,0,0,.5-.49.56.56,0,0,0,0-.63" style="fill: rgb(235, 153, 110); transform-origin: 248.354px 176.187px;" id="elajur8lc2fds" class="animable"></path><path d="M246.71,172.48c.28,0,.21,1.83,1.73,3.2s3.49,1.24,3.49,1.5c0,.11-.45.34-1.27.33a4.58,4.58,0,0,1-2.92-1.15,4,4,0,0,1-1.34-2.68C246.36,172.91,246.59,172.46,246.71,172.48Z" style="fill: rgb(38, 50, 56); transform-origin: 249.163px 174.995px;" id="els0fg5j9ucr" class="animable"></path><path d="M246.56,153.6c-.18.45-1.86.17-3.86.33s-3.62.64-3.87.22c-.11-.21.19-.63.85-1.05a6.74,6.74,0,0,1,5.89-.42C246.29,153,246.65,153.38,246.56,153.6Z" style="fill: rgb(38, 50, 56); transform-origin: 242.691px 153.256px;" id="elrtka9rwpaf8" class="animable"></path><path d="M262.54,151.61c-.32.37-1.47-.07-2.87-.14s-2.6.15-2.86-.26c-.11-.2.09-.58.63-.92a3.94,3.94,0,0,1,2.35-.54,4,4,0,0,1,2.26.86C262.53,151,262.68,151.43,262.54,151.61Z" style="fill: rgb(38, 50, 56); transform-origin: 259.686px 150.746px;" id="eln5m3ui3kou" class="animable"></path><path d="M222.27,145c2.4-7,12.87-16.64,20.28-16l11.7,7.34a11.42,11.42,0,0,1-7.93,8.6c-2.11.59-4.63.72-5.92,2.5s-.61,4.5-1.84,6.38c-1.69,2.59-6.17,2.38-7.46,5.2-.56,1.23-.31,2.72-.9,3.95-.78,1.62-5,3.62-6.68,3s-1.66-3.5-2.19-5a8.08,8.08,0,0,1-.14-5.45C222,152.11,221.12,148.39,222.27,145Z" style="fill: rgb(38, 50, 56); transform-origin: 237.517px 147.528px;" id="elz1hcnvbbowi" class="animable"></path><path d="M228.56,167.62c0-.91-.94-3.1-1.83-3.28-2.4-.47-6.75-.44-7,5.67-.38,8.37,8.1,7,8.12,6.79S228.45,170.78,228.56,167.62Z" style="fill: rgb(255, 190, 157); transform-origin: 224.139px 170.586px;" id="el2ohmpbadtl" class="animable"></path><path d="M225.41,173.51s-.15.1-.4.2a1.47,1.47,0,0,1-1.09,0c-.87-.36-1.55-1.8-1.52-3.31a4.75,4.75,0,0,1,.5-2.07,1.69,1.69,0,0,1,1.15-1.07.75.75,0,0,1,.84.44c.1.24,0,.41.08.42s.19-.13.14-.48a1,1,0,0,0-.31-.54,1.09,1.09,0,0,0-.79-.25,2.06,2.06,0,0,0-1.58,1.23,4.93,4.93,0,0,0-.62,2.31c0,1.69.77,3.3,2,3.71a1.58,1.58,0,0,0,1.34-.16C225.39,173.71,225.44,173.53,225.41,173.51Z" style="fill: rgb(235, 153, 110); transform-origin: 223.614px 170.514px;" id="el7umfahkard3" class="animable"></path><path d="M220.48,142.86h0c0-2.61-3.24-4.32-5.79-4.92a10.93,10.93,0,0,0-7.54,1.44c-1.35.74-2.7,1.78-3,3.29s1.15,3.29,2.58,2.75a5,5,0,1,0,4.8,8.48,11.06,11.06,0,0,1-4.35,5.94,12.45,12.45,0,0,0,13.3-17Z" style="fill: rgb(38, 50, 56); transform-origin: 212.272px 148.874px;" id="elzn4iy8yu4u" class="animable"></path><path d="M214.67,156.17a7.55,7.55,0,0,1-.31-2.51,18.37,18.37,0,0,1,3.85-11.43,7.7,7.7,0,0,1,1.76-1.81c.16.11-2.65,2.89-4.12,7.38S214.86,156.17,214.67,156.17Z" style="fill: rgb(12, 22, 51); transform-origin: 217.164px 148.295px;" id="ell9dng6o2rql" class="animable"></path><path d="M251.82,133.87c.77,3.41,5.95,7.78,8.22,10.43,4.34,5.06,5.19,6.74,5.15,18,2-3.91,3.61-7.74,3.45-12.14a18.24,18.24,0,0,0-4.84-12,14.22,14.22,0,0,0-12-4.34" style="fill: rgb(38, 50, 56); transform-origin: 260.226px 148.01px;" id="el2evz3pzojfl" class="animable"></path><path d="M287.3,226.94s-9-15-11.52-18.07a20.18,20.18,0,0,0-7.38-5.42,15.52,15.52,0,0,0-3.51-1l-13-2.87s0,8.84-9.29,9.39-17.08-12.37-17.08-12.37-15,2.32-18.57,4.16-9.21,4.19-12.31,19.71l-2.18,15.18L218.32,238l2.47,38.38,12.81,8.92s35.51,9.23,37.78,9.84,3-57.14,3-57.14S283.52,232.11,287.3,226.94Z" style="fill: rgb(12, 22, 51); transform-origin: 239.88px 245.872px;" id="elxlqmzr8jm08" class="animable"></path><path d="M270.3,220.49a5.38,5.38,0,0,1,.5,1.1c.29.73.67,1.79,1.09,3.13a60.85,60.85,0,0,1,2.64,21.57c-.09,1.39-.19,2.52-.31,3.29a5.61,5.61,0,0,1-.21,1.19,5.1,5.1,0,0,1,0-1.21c.05-.78.11-1.9.14-3.29a74.25,74.25,0,0,0-.5-10.83,75.2,75.2,0,0,0-2.12-10.62c-.37-1.34-.7-2.42-.93-3.16A5.87,5.87,0,0,1,270.3,220.49Z" style="fill: rgb(38, 50, 56); transform-origin: 272.466px 235.63px;" id="elxye40lfizno" class="animable"></path><path d="M269.2,283.35l-48.63-10.58L218.32,238l-21.62-2s.8,23.76,1.63,30.83c1.19,10.16,7.2,24,10.71,26.79s62.34,1.52,62.34,1.52Z" style="fill: rgb(255, 190, 157); transform-origin: 234.04px 265.714px;" id="eld46z9rp5y4" class="animable"></path><path d="M296.8,289.65a1.88,1.88,0,0,1-1.81,1.06,2.08,2.08,0,0,1-.47-.1c-1.08-.34-1-2.53-1-2.53l-5.15-.84s-6.7,4.32-9.09,7.18-8.46.55-8.46.55l-2.11-11,9.49-8.58s-.59.52.07-1.09,3.63-1,3.63-1c.47-.79,2.41-1.08,2.41-1.08l8.32,1a5.7,5.7,0,0,1,4.17,2.62l3.52,5.57s1.86,4,1.56,4.95a1.67,1.67,0,0,1-1.94,1.09s-.41,2.64-1.1,2.73a5.72,5.72,0,0,1-2.06-.5Z" style="fill: rgb(255, 190, 157); transform-origin: 285.311px 284.036px;" id="ellcrg62p8m87" class="animable"></path><path d="M279.09,281.76c0,.09,1.12,0,2.89.07a24.62,24.62,0,0,1,6.79,1.27,24.37,24.37,0,0,1,3.51,1.49c1,.57,2.05,1,2.37,1.77a1,1,0,0,1-.09,1,1.36,1.36,0,0,1-.63.53,2.24,2.24,0,0,1-.73.11s.26.23.8.08a1.53,1.53,0,0,0,.8-.55,1.33,1.33,0,0,0,.2-1.3,2.6,2.6,0,0,0-1-1.17c-.45-.3-.92-.6-1.45-.89a22.28,22.28,0,0,0-3.57-1.57,21.76,21.76,0,0,0-6.95-1.14A10,10,0,0,0,279.09,281.76Z" style="fill: rgb(235, 153, 110); transform-origin: 287.089px 284.79px;" id="elxl8csp77lql" class="animable"></path><path d="M278.51,287.07c0,.16,3.4,0,7.56.26s7.51.75,7.53.6a8.23,8.23,0,0,0-2.16-.53,47.51,47.51,0,0,0-5.34-.6,48.1,48.1,0,0,0-5.38,0A8.1,8.1,0,0,0,278.51,287.07Z" style="fill: rgb(235, 153, 110); transform-origin: 286.055px 287.341px;" id="el3aenyrin667" class="animable"></path><path d="M296.75,289.44a3.34,3.34,0,0,0,.11-.88,19.49,19.49,0,0,0,0-2.44,10,10,0,0,0-.23-1.69,5,5,0,0,0-.82-1.81,11.32,11.32,0,0,0-3.11-3.19,15.9,15.9,0,0,0-4-2,14.16,14.16,0,0,0-3.6-.54c-1,0-1.86,0-2.43,0a2.7,2.7,0,0,0-.89.09,30.12,30.12,0,0,0,3.3.27,15.39,15.39,0,0,1,3.47.64,16.23,16.23,0,0,1,3.82,2,11.46,11.46,0,0,1,3,3,6.4,6.4,0,0,1,1.08,3.25C296.69,288.17,296.64,289.45,296.75,289.44Z" style="fill: rgb(235, 153, 110); transform-origin: 289.339px 283.162px;" id="el4ffb0lhb5j1" class="animable"></path><path d="M284.73,274.35c0,.08,1.25.11,3.24.34s5,.43,6.72,3.07a28.17,28.17,0,0,1,4.2,6.53,17.82,17.82,0,0,1,.79,3.11,2.44,2.44,0,0,0,.05-.88,8.51,8.51,0,0,0-.49-2.36,24.52,24.52,0,0,0-4.14-6.73,8.88,8.88,0,0,0-1.61-1.63,5.64,5.64,0,0,0-2-.92,17.74,17.74,0,0,0-3.53-.56A12.32,12.32,0,0,0,284.73,274.35Z" style="fill: rgb(235, 153, 110); transform-origin: 292.24px 280.814px;" id="elvyr1o3wdpvb" class="animable"></path><path d="M281.12,292.65a2.6,2.6,0,0,0,.5-.38c.36-.28.82-.66,1.39-1.12a58,58,0,0,1,5.47-3.76l-.12,0,5.15.88-.18-.22a6,6,0,0,0,.1,1.26,2.4,2.4,0,0,0,.58,1.24,1.35,1.35,0,0,0,.69.31,1.75,1.75,0,0,0,.72,0,2.09,2.09,0,0,0,1.28-.71,1.7,1.7,0,0,0,.23-.3l.05-.08,0-.05v0h0l-.3.11h0l.16.06.66.24c.23.07.46.13.71.18a2.33,2.33,0,0,0,.38,0,.93.93,0,0,0,.48-.09,1.56,1.56,0,0,0,.5-.69,5,5,0,0,0,.26-.7,11.88,11.88,0,0,0,.33-1.46l-.3.21a2,2,0,0,0,1.92-.66,1.54,1.54,0,0,0,.35-1,4,4,0,0,0-.18-1,27.47,27.47,0,0,0-1.42-3.71h0v0c-.59-.95-1.23-1.95-1.87-3l-1.19-1.88a10.26,10.26,0,0,0-1.31-1.83,5.52,5.52,0,0,0-1.86-1.24,7.43,7.43,0,0,0-2.13-.44l-7.84-.88h-.06a8,8,0,0,0-1.38.36,2.32,2.32,0,0,0-1.19.84l.29-.09a2.88,2.88,0,0,0-2.68.15,3.37,3.37,0,0,0-1.32,2.11l.07-.11-6.54,5.88c-.74.67-1.32,1.21-1.76,1.62a4.14,4.14,0,0,0-.59.59,4.17,4.17,0,0,0,.66-.51l1.83-1.54,6.66-5.75,0,0,0-.07a3,3,0,0,1,1.16-1.83,2.46,2.46,0,0,1,2.26-.09l.18.07.11-.16a2,2,0,0,1,1-.64,7.49,7.49,0,0,1,1.28-.32h-.06l7.83.92a6.85,6.85,0,0,1,2,.42,4.9,4.9,0,0,1,1.69,1.12,10,10,0,0,1,1.23,1.74l1.19,1.88,1.88,3,0,0a29,29,0,0,1,1.4,3.62,4.25,4.25,0,0,1,.17.88,1,1,0,0,1-.25.71,1.44,1.44,0,0,1-1.41.47l-.26,0,0,.25a12.91,12.91,0,0,1-.31,1.4,2.45,2.45,0,0,1-.54,1.11.64.64,0,0,1-.2,0,1.73,1.73,0,0,1-.32,0,5.59,5.59,0,0,1-.65-.16c-.21-.06-.42-.14-.63-.22l-.15-.06h0l-.3.11h0v0l0,0,0,.06a1.38,1.38,0,0,1-.17.25,1.69,1.69,0,0,1-1,.56,1.57,1.57,0,0,1-.57,0,.85.85,0,0,1-.47-.2,3.2,3.2,0,0,1-.56-2.15v-.19l-.17,0-5.16-.81h-.07l-.05,0a47.83,47.83,0,0,0-5.41,3.92c-.59.5-1,.91-1.34,1.19A3.26,3.26,0,0,0,281.12,292.65Z" style="fill: rgb(235, 153, 110); transform-origin: 285.65px 282.295px;" id="el6khxgkn2t7g" class="animable"></path><path d="M350.06,257.7l-64.05.52c-2.08,0-4.06,1-4.37,3l-7,46.69h-33a1.92,1.92,0,1,0,0,3.84H347l7.2-49.27A4.2,4.2,0,0,0,350.06,257.7Z" style="fill: rgb(224, 224, 224); transform-origin: 296.98px 284.725px;" id="elz2jhxmi6r2k" class="animable"></path><path d="M350.06,257.7a3.22,3.22,0,0,1,1,.09,4.23,4.23,0,0,1,2.45,1.63,4.11,4.11,0,0,1,.79,2,11.75,11.75,0,0,1-.23,2.64l-.93,6.5c-1.41,9.78-3.44,23.89-5.94,41.23l0,.17H347l-102.23.06H242a2.64,2.64,0,0,1-1.46-.27,2.15,2.15,0,0,1-1-1.16,2.18,2.18,0,0,1,1-2.66,2.59,2.59,0,0,1,1.44-.27h32.61l-.25.21,7-46.31a3.64,3.64,0,0,1,1.18-2.44,4.89,4.89,0,0,1,2.45-1.08,22.64,22.64,0,0,1,2.58-.09l2.52,0,9.64-.06,17.14-.11,24.4-.12,6.53,0h1.68l.57,0s-.19,0-.57,0l-1.68,0-6.53.1-24.4.27-17.14.17-9.64.09-2.51,0a23.21,23.21,0,0,0-2.52.09,4.39,4.39,0,0,0-2.24,1,3.19,3.19,0,0,0-1,2.19c-2.09,14-4.41,29.59-6.91,46.31l0,.22H242a2.1,2.1,0,0,0-1.19.2,1.68,1.68,0,0,0-.76,2,1.71,1.71,0,0,0,.75.88,2.14,2.14,0,0,0,1.21.22h2.75l102.23.06-.2.17,6.11-41.22c.37-2.43.69-4.6,1-6.49a12.34,12.34,0,0,0,.26-2.59,4.1,4.1,0,0,0-.74-2,4.2,4.2,0,0,0-2.37-1.63A6.16,6.16,0,0,0,350.06,257.7Z" style="fill: rgb(38, 50, 56); transform-origin: 296.856px 284.847px;" id="elcy1vr1fw1f" class="animable"></path><path d="M311.31,284.16a4,4,0,1,0,4-4A4,4,0,0,0,311.31,284.16Z" style="fill: rgb(255, 255, 255); transform-origin: 315.31px 284.16px;" id="elnxo8y0d8b7m" class="animable"></path><path d="M277.23,311.37c.09,0,2.13-11.87,4.55-26.55s4.32-26.59,4.23-26.6-2.13,11.87-4.55,26.55S277.14,311.36,277.23,311.37Z" style="fill: rgb(38, 50, 56); transform-origin: 281.62px 284.795px;" id="el8nsfwtatw48" class="animable"></path></g><defs>     <filter id="active" height="200%">         <feMorphology in="SourceAlpha" result="DILATED" operator="dilate" radius="2"></feMorphology>                <feFlood flood-color="#32DFEC" flood-opacity="1" result="PINK"></feFlood>        <feComposite in="PINK" in2="DILATED" operator="in" result="OUTLINE"></feComposite>        <feMerge>            <feMergeNode in="OUTLINE"></feMergeNode>            <feMergeNode in="SourceGraphic"></feMergeNode>        </feMerge>    </filter>    <filter id="hover" height="200%">        <feMorphology in="SourceAlpha" result="DILATED" operator="dilate" radius="2"></feMorphology>                <feFlood flood-color="#ff0000" flood-opacity="0.5" result="PINK"></feFlood>        <feComposite in="PINK" in2="DILATED" operator="in" result="OUTLINE"></feComposite>        <feMerge>            <feMergeNode in="OUTLINE"></feMergeNode>            <feMergeNode in="SourceGraphic"></feMergeNode>        </feMerge>            <feColorMatrix type="matrix" values="0   0   0   0   0                0   1   0   0   0                0   0   0   0   0                0   0   0   1   0 "></feColorMatrix>    </filter></defs></svg>